<svg width="58" height="49" viewBox="0 0 58 49" fill="none" xmlns="http://www.w3.org/2000/svg">
<path d="M57.6238 21.2404C57.7256 20.8698 57.7209 20.478 57.6107 20.1098C57.5006 19.7418 57.289 19.412 57.0004 19.1582C56.7248 18.9121 56.3846 18.7503 56.02 18.6918C55.6553 18.6332 55.2817 18.6804 54.9429 18.8277L54.8618 18.8588C52.1749 20.029 49.2238 20.4593 46.3145 20.1057C40.7025 19.5225 35.0431 19.5767 29.4434 20.2678C26.426 20.632 23.3657 20.2025 20.5651 19.0209C20.3468 18.9335 20.1224 18.8464 19.8854 18.7654H19.8857C19.5261 18.6352 19.1374 18.61 18.7641 18.6927C18.3911 18.7758 18.0489 18.9629 17.7783 19.2328C17.5105 19.4916 17.3213 19.8211 17.2329 20.183C17.1449 20.545 17.1609 20.9247 17.2795 21.2779L17.3916 21.596L17.392 21.5956C18.2749 23.8928 18.6532 26.3528 18.5015 28.809C18.2226 32.1271 18.1831 35.4608 18.383 38.7844C18.5601 41.1674 18.2742 43.5616 17.5413 45.8358C17.4572 46.0916 17.3862 46.3517 17.3293 46.6153C17.1957 47.2946 17.4241 47.9947 17.9323 48.4648C18.4406 48.9352 19.1564 49.108 19.8234 48.9218C20.0798 48.8425 20.3316 48.7487 20.5777 48.6413C23.2653 47.4737 26.2157 47.0431 29.1254 47.3944C34.5535 47.9579 40.0274 47.9224 45.4471 47.2886C46.1389 47.2142 46.834 47.1767 47.5297 47.1764C49.8681 47.1536 52.1834 47.6431 54.3129 48.6101C54.5419 48.7176 54.7773 48.8114 55.0174 48.8907C55.3562 49.0086 55.7205 49.0323 56.0714 48.96C56.4226 48.8874 56.7477 48.7213 57.0123 48.4792C57.2858 48.2345 57.4877 47.9207 57.5975 47.5705C57.7074 47.2206 57.7204 46.8473 57.636 46.4903C57.5798 46.2533 57.5175 46.0226 57.4429 45.8046H57.4425C56.7123 43.5321 56.4266 41.1402 56.6011 38.7596C56.7993 35.5112 56.7662 32.2524 56.5013 29.0088C56.3473 26.5143 56.6885 24.0142 57.5051 21.6521C57.5487 21.5024 57.5862 21.3715 57.6233 21.2406L57.6238 21.2404Z" fill="#12123D"/>
<path d="M17.2558 28.6849C17.3927 26.4041 17.0375 24.1206 16.2145 21.9888C16.171 21.8703 16.1272 21.7458 16.09 21.6272C15.9015 21.054 15.8777 20.4393 16.021 19.853C16.1643 19.2667 16.469 18.7324 16.9006 18.3105C17.3392 17.8813 17.889 17.5826 18.4883 17.4483C19.0873 17.314 19.7117 17.3492 20.292 17.5501C20.5538 17.6435 20.8096 17.7433 21.0527 17.8431C23.6512 18.9447 26.4922 19.3484 29.2946 19.0149C34.7897 18.3373 40.3424 18.2599 45.8538 18.7843C46.1966 18.2666 46.5583 17.7557 46.9885 17.2133C47.0695 17.1135 47.1505 17.0013 47.2255 16.8892H47.2252C47.4549 16.5741 47.5888 16.1994 47.6109 15.81C47.633 15.421 47.5426 15.0336 47.3501 14.6944C47.1833 14.3646 46.9228 14.091 46.6007 13.9092C46.279 13.7271 45.9107 13.6447 45.542 13.6722H45.4482C42.5229 13.8232 39.61 13.195 37.0068 11.8514C31.944 9.37171 26.6173 7.47262 21.1273 6.19059C18.1709 5.47709 15.4494 4.00994 13.2282 1.93231C13.0598 1.77026 12.879 1.61423 12.6858 1.45217C12.3932 1.20674 12.0373 1.04905 11.659 0.997148C11.2806 0.945585 10.8952 1.0015 10.5473 1.1592C10.2065 1.3092 9.91554 1.55295 9.70795 1.86199C9.50036 2.17103 9.38518 2.53263 9.37514 2.90496V3.24179V3.24146C9.41297 5.70403 8.91744 8.1456 7.92271 10.3989C6.50705 13.4026 5.31108 16.5054 4.34414 19.6818C3.68554 21.9843 2.58665 24.1376 1.10842 26.0223C0.942351 26.2336 0.787997 26.4543 0.64704 26.6833C0.279737 27.2773 0.25128 28.0206 0.571705 28.641C0.892465 29.2618 1.5149 29.6685 2.21168 29.7131C2.47753 29.7319 2.74404 29.7319 3.00989 29.7131C5.93086 29.5564 8.84112 30.1829 11.439 31.5275C13.2534 32.453 15.1137 33.2853 17.0128 34.0213C17.0376 31.9889 17.1748 30.131 17.2559 28.6845L17.2558 28.6849Z" fill="#12123D"/>
</svg>
