<svg width="646" height="675" viewBox="0 0 646 675" fill="none" xmlns="http://www.w3.org/2000/svg">
<path d="M0 24.5616C0 24.5616 141.859 -31.9365 205.414 47.748C255.166 110.128 183.331 251.01 235.191 310.528C296.719 381.14 406.289 306.768 465.84 380.088C507.326 431.165 448.002 549.36 488.552 601.647C514.066 634.546 644 668.63 644 668.63" stroke="#f2e4ae" stroke-width="10" stroke-linejoin="round"/>
<path d="M-29 60.656C-29 60.656 112.859 4.15781 176.414 83.8424C226.166 146.222 154.331 287.105 206.191 346.622C267.719 417.235 377.289 342.863 436.84 416.182C478.326 467.259 419.002 585.455 459.552 637.742C485.066 670.641 615 704.725 615 704.725" stroke="#D4AA00" stroke-width="10" stroke-linejoin="round"/>
<path d="M-57 102.058C-57 102.058 84.8595 45.5602 148.414 125.245C198.166 187.624 126.331 328.507 178.191 388.025C239.719 458.637 349.289 384.265 408.84 457.584C450.326 508.661 391.002 626.857 431.552 679.144C457.066 712.043 587 746.127 587 746.127" stroke="#f2e4ae" stroke-width="10" stroke-linejoin="round"/>
<path d="M-85 137.122C-85 137.122 56.8595 80.5336 120.414 160.346C170.166 222.825 98.3307 363.933 150.191 423.546C211.719 494.271 321.289 419.78 380.84 493.217C422.326 544.376 363.002 662.761 403.552 715.131C429.066 748.083 559 782.221 559 782.221" stroke="#D4AA00" stroke-width="10" stroke-linejoin="round"/>
<path d="M-115 178.493C-115 178.493 26.8595 121.995 90.4138 201.68C140.166 264.06 68.3307 404.942 120.191 464.46C181.719 535.072 291.289 460.7 350.84 534.019C392.326 585.097 333.002 703.292 373.552 755.579C399.066 788.478 529 822.562 529 822.562" stroke="#f2e4ae" stroke-width="10" stroke-linejoin="round"/>
<path d="M-141 230.512C-141 230.512 0.859488 174.014 64.4138 253.698C114.166 316.078 42.3307 456.961 94.1912 516.478C155.719 587.091 265.289 512.719 324.84 586.038C366.326 637.115 307.002 755.311 347.552 807.598C373.066 840.496 503 874.581 503 874.581" stroke="#D4AA00" stroke-width="10" stroke-linejoin="round"/>
<path d="M-166 282.499C-166 282.499 -24.1405 226.091 39.4138 305.648C89.1662 367.928 17.3307 508.585 69.1912 568.008C130.719 638.507 240.289 564.254 299.84 637.456C341.326 688.452 282.002 806.458 322.552 858.661C348.066 891.508 478 925.537 478 925.537" stroke="#f2e4ae" stroke-width="10" stroke-linejoin="round"/>
<path d="M-200 338.795C-200 338.795 -58.1405 282.297 5.4138 361.981C55.1662 424.361 -16.6693 565.244 35.1912 624.761C96.7187 695.374 206.289 621.002 265.84 694.321C307.326 745.398 248.002 863.594 288.552 915.881C314.066 948.78 444 982.864 444 982.864" stroke="#D4AA00" stroke-width="10" stroke-linejoin="round"/>
</svg>
