<svg width="57" height="231" viewBox="0 0 57 231" fill="none" xmlns="http://www.w3.org/2000/svg">
<circle cx="22" cy="128" r="3" fill="#12123D"/>
<circle cx="6" cy="128" r="3" fill="#12123D"/>
<circle cx="38" cy="128" r="3" fill="#12123D"/>
<circle cx="54" cy="128" r="3" fill="#12123D"/>
<circle cx="22" cy="178" r="3" fill="#12123D"/>
<circle cx="6" cy="178" r="3" fill="#12123D"/>
<circle cx="38" cy="178" r="3" fill="#12123D"/>
<circle cx="54" cy="178" r="3" fill="#12123D"/>
<circle cx="22" cy="153" r="3" fill="#12123D"/>
<circle cx="6" cy="153" r="3" fill="#12123D"/>
<circle cx="38" cy="153" r="3" fill="#12123D"/>
<circle cx="54" cy="153" r="3" fill="#12123D"/>
<circle cx="22" cy="203" r="3" fill="#12123D"/>
<circle cx="6" cy="203" r="3" fill="#12123D"/>
<circle cx="38" cy="203" r="3" fill="#12123D"/>
<circle cx="54" cy="203" r="3" fill="#12123D"/>
<circle cx="22" cy="228" r="3" fill="#12123D"/>
<circle cx="6" cy="228" r="3" fill="#12123D"/>
<circle cx="38" cy="228" r="3" fill="#12123D"/>
<circle cx="54" cy="228" r="3" fill="#12123D"/>
<circle cx="22" cy="3" r="3" fill="#12123D"/>
<circle cx="6" cy="3" r="3" fill="#12123D"/>
<circle cx="38" cy="3" r="3" fill="#12123D"/>
<circle cx="54" cy="3" r="3" fill="#12123D"/>
<circle cx="22" cy="53" r="3" fill="#12123D"/>
<circle cx="6" cy="53" r="3" fill="#12123D"/>
<circle cx="38" cy="53" r="3" fill="#12123D"/>
<circle cx="54" cy="53" r="3" fill="#12123D"/>
<circle cx="22" cy="28" r="3" fill="#12123D"/>
<circle cx="6" cy="28" r="3" fill="#12123D"/>
<circle cx="38" cy="28" r="3" fill="#12123D"/>
<circle cx="54" cy="28" r="3" fill="#12123D"/>
<circle cx="22" cy="78" r="3" fill="#12123D"/>
<circle cx="6" cy="78" r="3" fill="#12123D"/>
<circle cx="38" cy="78" r="3" fill="#12123D"/>
<circle cx="54" cy="78" r="3" fill="#12123D"/>
<circle cx="22" cy="103" r="3" fill="#12123D"/>
<circle cx="6" cy="103" r="3" fill="#12123D"/>
<circle cx="38" cy="103" r="3" fill="#12123D"/>
<circle cx="54" cy="103" r="3" fill="#12123D"/>
</svg>
