<svg width="42" height="42" viewBox="0 0 42 42" fill="none" xmlns="http://www.w3.org/2000/svg">
<path d="M8.16994 4.7168L0.192856 27.3214L2.6334 28.2977L10.4438 12.6763L8.16994 4.7168Z" fill="#12123D"/>
<path d="M16.9668 6.80333L19.7612 5.6857L17.5773 0.225098L15.0902 1.21956C15.4303 3.38616 15.2971 5.60067 14.6988 7.7107L16.9668 6.80333Z" fill="#12123D"/>
<path d="M25.2768 11.4676L24.1451 8.0678L21.6949 7.0874L20.2023 15.0471C21.4535 13.3277 23.2374 12.0695 25.2768 11.4675V11.4676Z" fill="#12123D"/>
<path d="M24.4137 0.225098L22.2297 5.6857L25.0241 6.80333L27.2922 7.7107C26.6939 5.60067 26.5606 3.38616 26.9008 1.21956L24.4137 0.225098Z" fill="#12123D"/>
<path d="M17.8471 8.06755L16.7867 11.2497H19.3886L20.1593 7.14209L17.8471 8.06755Z" fill="#12123D"/>
<path d="M20.9954 4.7304L22.8878 0H19.103L20.9954 4.7304Z" fill="#12123D"/>
<path d="M17.9954 18.7501C17.9954 18.7039 17.9997 18.6577 18.0088 18.6121L19.1076 12.75H15.7453C15.5042 12.7497 15.2782 12.6339 15.1373 12.4383C14.9966 12.2428 14.9581 11.9917 15.0341 11.763L16.0218 8.79685L13.7718 9.69685H13.7722C13.501 9.80499 13.1916 9.74573 12.9796 9.54551C12.7674 9.34529 12.6904 9.03993 12.7828 8.76303L13.0731 7.89081C13.7377 5.88989 13.9312 3.7628 13.6379 1.6748L9.17972 2.78943L11.9668 12.5437L12.8487 15.6291C13.2776 17.1321 13.4953 18.687 13.4953 20.2499C13.4953 20.3172 13.4862 20.3845 13.4681 20.4495C12.9358 22.3777 12.4811 24.3254 12.0911 26.2851H12.0914C12.5551 26.2597 12.9998 26.0929 13.3664 25.8073C14.0246 25.1276 14.3468 24.1908 14.2453 23.2499C14.2453 22.8358 14.5811 22.4999 14.9953 22.4999C15.4095 22.4999 15.7453 22.8358 15.7453 23.2499C15.7453 24.9398 15.2615 26.193 14.3082 26.9745C13.5994 27.5256 12.7222 27.8156 11.8242 27.7958H11.8048C10.9805 32.3685 10.5458 37.0032 10.505 41.6498V42.0007H17.9953L17.9954 18.7501Z" fill="#12123D"/>
<path d="M28.2168 9.69699L25.9668 8.79699L26.9545 11.7631C27.0235 11.9674 27.001 12.1917 26.8929 12.3782C26.7851 12.5647 26.6019 12.6959 26.3906 12.7381C24.2012 13.1801 22.2897 14.5016 21.1031 16.3937L19.4949 18.9648V42.0005H31.4881V41.6496C31.4462 37.0029 31.0106 32.3684 30.1853 27.7956H30.1659C29.2679 27.8157 28.3907 27.5257 27.6819 26.9746C26.7287 26.1938 26.2448 24.9406 26.2448 23.2507C26.2448 22.8366 26.5806 22.5007 26.9948 22.5007C27.409 22.5007 27.7448 22.8366 27.7448 23.2507C27.6437 24.1916 27.9661 25.1287 28.6247 25.8081C28.991 26.0937 29.4357 26.2605 29.8997 26.2859C29.5097 24.3262 29.0553 22.3785 28.5227 20.4503C28.5042 20.3853 28.4949 20.318 28.4949 20.2508C28.4949 18.6882 28.7125 17.1332 29.1414 15.6309L30.0233 12.5456L32.8104 2.79041L28.351 1.67578C28.0576 3.7637 28.2508 5.89087 28.9158 7.89178L29.2061 8.76401C29.2982 9.04091 29.2215 9.34627 29.0092 9.54649C28.7969 9.74671 28.4879 9.80597 28.2167 9.69782L28.2168 9.69699ZM24.745 35.2501H23.7874C23.5655 35.6342 23.1854 35.9004 22.7488 35.9774C22.3122 36.0544 21.8636 35.9342 21.5241 35.6492C21.1845 35.3643 20.9883 34.9434 20.9883 34.5002C20.9883 34.0569 21.1846 33.636 21.5241 33.3511C21.8636 33.0662 22.3122 32.9459 22.7488 33.023C23.1854 33.1 23.5655 33.3661 23.7874 33.7502H24.745C25.1592 33.7502 25.495 34.086 25.495 34.5002C25.495 34.9144 25.1592 35.2502 24.745 35.2502V35.2501ZM24.745 30.7501H23.7874C23.5655 31.1342 23.1854 31.4004 22.7488 31.4774C22.3122 31.5544 21.8636 31.4342 21.5241 31.1492C21.1845 30.8643 20.9883 30.4434 20.9883 30.0002C20.9883 29.5569 21.1846 29.136 21.5241 28.8511C21.8636 28.5662 22.3122 28.4459 22.7488 28.523C23.1854 28.6 23.5655 28.8661 23.7874 29.2502H24.745C25.1592 29.2502 25.495 29.586 25.495 30.0002C25.495 30.4144 25.1592 30.7502 24.745 30.7502V30.7501ZM24.745 26.2501H23.7874C23.5655 26.6342 23.1854 26.9004 22.7488 26.9774C22.3122 27.0544 21.8636 26.9342 21.5241 26.6492C21.1845 26.3643 20.9883 25.9434 20.9883 25.5002C20.9883 25.0569 21.1846 24.636 21.5241 24.3511C21.8636 24.0662 22.3122 23.9459 22.7488 24.023C23.1854 24.1 23.5655 24.3661 23.7874 24.7502H24.745C25.1592 24.7502 25.495 25.086 25.495 25.5002C25.495 25.9144 25.1592 26.2502 24.745 26.2502V26.2501ZM24.745 21.7501H23.7874C23.5655 22.1342 23.1854 22.4004 22.7488 22.4774C22.3122 22.5544 21.8636 22.4342 21.5241 22.1492C21.1845 21.8643 20.9883 21.4434 20.9883 21.0002C20.9883 20.5569 21.1846 20.136 21.5241 19.8511C21.8636 19.5662 22.3122 19.4459 22.7488 19.523C23.1854 19.6 23.5655 19.8661 23.7874 20.2502H24.745C25.1592 20.2502 25.495 20.586 25.495 21.0002C25.495 21.4144 25.1592 21.7502 24.745 21.7502V21.7501Z" fill="#12123D"/>
<path d="M41.7982 27.3214L33.8211 4.7168L31.5474 12.6758L39.3578 28.2972L41.7982 27.3214Z" fill="#12123D"/>
</svg>
