<svg width="38" height="34" viewBox="0 0 38 34" fill="none" xmlns="http://www.w3.org/2000/svg">
<path d="M12.2735 9.12124C13.7626 6.54312 12.4935 3.01349 9.441 1.25074C8.34992 0.611373 7.10996 0.269971 5.84538 0.260742C3.83788 0.260742 2.10538 1.18474 1.2075 2.73574C0.458126 4.03374 0.371501 5.59162 0.965501 7.11924C1.51963 8.54374 2.61 9.78124 4.04 10.6062C5.13094 11.2476 6.37152 11.5905 7.637 11.6004C8.56238 11.6004 9.4245 11.3941 10.1808 11.0311L13.4807 12.9355C15.656 14.1922 14.2507 18.243 21.618 22.4986C28.9825 26.7542 37.425 24.6106 37.425 24.6106L11.7812 9.80462C11.9627 9.59012 12.1319 9.36737 12.2735 9.12262V9.12124ZM9.89062 7.74624C9.19488 8.95624 7.09525 9.19824 5.415 8.22474C4.52675 7.71187 3.85575 6.96524 3.53125 6.12374C3.2425 5.38812 3.2645 4.67312 3.589 4.11074C3.99188 3.40949 4.8155 3.01074 5.844 3.01074C6.59063 3.01074 7.35925 3.22524 8.066 3.63362C9.77513 4.61812 10.6097 6.50187 9.89062 7.74487V7.74624ZM20.7119 16.714C20.7119 17.3781 20.1756 17.9171 19.5101 17.9171C19.4606 17.9171 19.418 17.8937 19.3685 17.8896L20.2856 15.8106C20.4188 15.9207 20.5262 16.0586 20.6003 16.2147C20.6744 16.3708 20.7135 16.5412 20.7146 16.714H20.7119ZM19.5101 15.5109C19.5624 15.5109 19.6064 15.5342 19.6545 15.5384L18.7387 17.6146C18.605 17.5055 18.4971 17.3682 18.4227 17.2125C18.3483 17.0568 18.3093 16.8866 18.3084 16.714C18.3084 16.0499 18.8446 15.5109 19.5101 15.5109ZM37.4264 9.39212C37.4264 9.39212 28.9839 7.24712 21.6194 11.5027C20.881 11.929 20.2512 12.3525 19.6737 12.7732L25.6206 16.2066L37.425 9.39212H37.4264ZM15.1101 18.5084C14.6289 19.6771 14.3209 20.5819 13.4794 21.0659L10.1794 22.9702C9.38537 22.5907 8.51566 22.3961 7.63563 22.401C6.40775 22.401 5.16475 22.7447 4.04 23.391C0.987501 25.1551 -0.282999 28.6875 1.2075 31.2656C2.10125 32.8152 3.83375 33.7406 5.844 33.7406C7.07325 33.7406 8.319 33.3969 9.441 32.7506C10.871 31.9229 11.9614 30.6854 12.5155 29.2622C13.1095 27.7332 13.0215 26.1754 12.2707 24.876C12.1279 24.636 11.9641 24.4092 11.7812 24.1981L17.2565 21.0356C16.4392 20.2857 15.7186 19.4367 15.1115 18.5084H15.1101ZM9.95387 28.264C9.62663 29.1055 8.957 29.8521 8.07013 30.365C6.38987 31.3357 4.28888 31.0965 3.59038 29.8879C2.87263 28.6462 3.70863 26.7611 5.41638 25.7739C6.08957 25.3762 6.8552 25.162 7.637 25.1524C8.66825 25.1524 9.48775 25.5511 9.892 26.2524C10.2179 26.8161 10.2399 27.5311 9.95387 28.2654V28.264Z" fill="#12123D"/>
</svg>
