<svg width="25" height="24" viewBox="0 0 25 24" fill="none" xmlns="http://www.w3.org/2000/svg">
<g clip-path="url(#clip0_1093_571)">
<path d="M0.5 7.275C0.5 6.93281 0.580738 6.6 0.73205 6.31406L3.56563 1.00172C3.72996 0.693353 3.95272 0.44054 4.21409 0.265775C4.47546 0.0910099 4.76733 -0.000289194 5.06375 6.88149e-07H19.9363C20.54 6.88149e-07 21.0988 0.375985 21.4325 1.00172L24.2675 6.31406C24.4175 6.6 24.5 6.93281 24.5 7.275C24.5 8.22656 23.8813 9 23.12 9H1.8815C1.11875 9 0.5 8.22656 0.5 7.275ZM2.9 10.5H5.3V18H12.5V10.5H14.9V21.75C14.9 22.9922 14.0938 24 13.1 24H4.7C3.70588 24 2.9 22.9922 2.9 21.75V10.5ZM19.7 10.5H22.1V22.5C22.1 23.3297 21.5638 24 20.9 24C20.2362 24 19.7 23.3297 19.7 22.5V10.5Z" fill="#D4AA00"/>
</g>
<defs>
<clipPath id="clip0_1093_571">
<rect width="24" height="24" fill="white" transform="translate(0.5)"/>
</clipPath>
</defs>
</svg>
