<svg width="48" height="40" viewBox="0 0 48 40" fill="none" xmlns="http://www.w3.org/2000/svg">
<path d="M38.1994 21.8027C33.1754 21.8027 29.1025 25.8768 29.1025 30.8996C29.1025 35.9224 33.1753 39.993 38.1994 39.993C43.2221 39.993 47.2945 35.9216 47.2945 30.8996C47.2945 25.8769 43.2217 21.8027 38.1994 21.8027ZM37.5247 37.3856L32.111 30.9333L34.1766 29.2009L37.3068 32.9332L42.1416 25.8758L44.3642 27.3986L37.5247 37.3856Z" fill="#12123D"/>
<path d="M26.7643 30.8999C26.7643 24.7807 31.573 19.7999 37.614 19.493C37.3173 13.6005 36.9915 7.69531 36.8563 7.19217C36.5827 6.16659 33.8512 3.94574 33.8512 3.94574L33.8509 0.698966C33.8509 0.329657 33.5482 0.0283203 33.1776 0.0283203H20.1258H18.7818L5.73184 0.0286551C5.36253 0.0286551 5.05851 0.329658 5.05851 0.699301V3.94573C5.05851 3.94573 2.36623 6.16693 2.094 7.19216C1.8017 8.2917 0.75 31.7099 0.75 31.7099C0.75 33.1935 1.953 34.3948 3.43663 34.3948H27.3141C26.9592 33.2922 26.7643 32.1183 26.7643 30.8996L26.7643 30.8999ZM9.06083 2.38359H29.8868L29.3401 4.38948L31.2469 6.34719H7.70201L9.60881 4.38948L9.06083 2.38359ZM19.4751 27.3496C14.1253 27.3496 9.79112 23.015 9.79112 17.6656C9.79112 17.5973 9.79982 17.529 9.79982 17.4577C8.78162 17.0227 8.06608 16.0116 8.06608 14.832C8.06608 13.2584 9.34477 11.9767 10.9214 11.9767C12.498 11.9767 13.7767 13.258 13.7767 14.832C13.7767 16.1019 12.9433 17.165 11.7969 17.536C11.9817 21.6218 15.343 24.883 19.4753 24.883C23.6063 24.883 26.9676 21.6218 27.1524 17.536C26.0063 17.1637 25.1726 16.102 25.1726 14.832C25.1726 13.2584 26.4513 11.9767 28.0279 11.9767C29.6033 11.9767 30.8816 13.258 30.8816 14.832C30.8816 16.0116 30.1688 17.0224 29.1492 17.4573C29.1522 17.5286 29.1593 17.5969 29.1593 17.6653C29.1583 23.014 24.8237 27.3501 19.4753 27.3501L19.4751 27.3496Z" fill="#12123D"/>
</svg>
