<svg width="38" height="44" viewBox="0 0 38 44" fill="none" xmlns="http://www.w3.org/2000/svg">
<path d="M9.25002 13.043C9.25002 13.4571 8.91419 13.793 8.50002 13.793C8.08584 13.793 7.75002 13.4571 7.75002 13.043C7.75002 12.6288 8.08584 12.293 8.50002 12.293C8.91419 12.293 9.25002 12.6288 9.25002 13.043Z" fill="#12123D"/>
<path d="M9.25002 33.293C9.25002 33.7071 8.91419 34.043 8.50002 34.043C8.08584 34.043 7.75002 33.7071 7.75002 33.293C7.75002 32.8788 8.08584 32.543 8.50002 32.543C8.91419 32.543 9.25002 32.8788 9.25002 33.293Z" fill="#12123D"/>
<path d="M7.00002 4.80713V6.29273H5.50002V4.80713C2.05002 4.9367 0.250015 5.93281 0.250015 6.29273C0.250015 6.67811 2.31247 7.79273 6.25002 7.79273C10.1876 7.79273 12.25 6.6781 12.25 6.29273C12.25 5.9328 10.45 4.93673 7.00002 4.80713Z" fill="#12123D"/>
<path d="M0.250015 8.18662V10.1185C1.21696 10.3171 2.06673 10.889 2.61487 11.7099C3.16297 12.5312 3.36521 13.5354 3.17771 14.5046C2.98987 15.4736 2.42771 16.3301 1.61274 16.8872C3.11608 17.3406 4.68002 17.5619 6.25005 17.5435V19.0435C4.20131 19.0826 2.16388 18.7261 0.250049 17.9935V19.3508C2.13345 20.1999 4.18519 20.6078 6.25005 20.5435V22.0435C4.20131 22.0826 2.16388 21.7261 0.250049 20.9935V30.2935C1.58968 30.2935 2.82782 31.0083 3.49751 32.1685C4.16748 33.3286 4.16748 34.7583 3.49751 35.9185C2.82786 37.0786 1.58968 37.7935 0.250049 37.7935V39.6008C2.13345 40.4499 4.18519 40.8577 6.25005 40.7935V42.2935C4.20131 42.3326 2.16388 41.9761 0.250049 41.2435V42.2935C0.250049 42.6788 2.31251 43.7935 6.25005 43.7935C10.1876 43.7935 12.25 42.6788 12.25 42.2935V24.218C11.111 23.9867 10.1434 23.2404 9.63071 22.1971C9.11809 21.1541 9.11809 19.932 9.63071 18.889C10.1433 17.8457 11.111 17.0994 12.25 16.868V8.18604C10.3533 8.98358 8.30651 9.36126 6.25005 9.29295C4.19359 9.36125 2.14682 8.98357 0.250049 8.18604L0.250015 8.18662ZM4.75002 29.5432C3.95448 29.5432 3.19139 29.2271 2.62859 28.6646C2.06609 28.1018 1.75002 27.3387 1.75002 26.5432C1.75002 25.7477 2.06609 24.9846 2.62859 24.4218C3.19142 23.8593 3.9545 23.5432 4.75002 23.5432C5.54553 23.5432 6.30864 23.8593 6.87144 24.4218C7.43394 24.9846 7.75002 25.7477 7.75002 26.5432C7.75002 27.3387 7.43394 28.1018 6.87144 28.6646C6.30861 29.2271 5.54553 29.5432 4.75002 29.5432ZM10.75 33.2932C10.75 33.8898 10.513 34.4624 10.0911 34.8842C9.66921 35.306 9.09663 35.5431 8.50006 35.5431C7.90349 35.5431 7.33083 35.3061 6.90903 34.8842C6.48723 34.4623 6.2501 33.8898 6.2501 33.2932C6.2501 32.6966 6.48715 32.124 6.90903 31.7022C7.33091 31.2804 7.90349 31.0432 8.50006 31.0432C9.09663 31.0432 9.66929 31.2803 10.0911 31.7022C10.5129 32.124 10.75 32.6966 10.75 33.2932ZM8.50002 10.7932C9.09666 10.7932 9.66924 11.0302 10.091 11.4521C10.5128 11.874 10.75 12.4466 10.75 13.0431C10.75 13.6397 10.5129 14.2124 10.091 14.6342C9.66917 15.056 9.09659 15.2931 8.50002 15.2931C7.90344 15.2931 7.33079 15.0561 6.90899 14.6342C6.48719 14.2123 6.25006 13.6397 6.25006 13.0431C6.25006 12.4466 6.48711 11.8739 6.90899 11.4521C7.33086 11.0303 7.90344 10.7932 8.50002 10.7932Z" fill="#12123D"/>
<path d="M25.75 40.043C25.285 40.0436 24.8312 40.1879 24.4513 40.4565C24.0716 40.725 23.784 41.1047 23.6283 41.543H27.8718C27.7161 41.1047 27.4285 40.725 27.0488 40.4565C26.6688 40.1879 26.2151 40.0436 25.7501 40.043H25.75Z" fill="#12123D"/>
<path d="M36.25 19.7932C36.2507 20.2583 36.395 20.712 36.6635 21.0919C36.932 21.4716 37.3117 21.7592 37.75 21.9149V17.6714C37.3117 17.8271 36.9321 18.1147 36.6635 18.4944C36.395 18.8744 36.2507 19.3281 36.25 19.7931V19.7932Z" fill="#12123D"/>
<path d="M6.25002 26.543C6.25002 27.3713 5.57837 28.043 4.75002 28.043C3.92166 28.043 3.25002 27.3713 3.25002 26.543C3.25002 25.7146 3.92166 25.043 4.75002 25.043C5.57837 25.043 6.25002 25.7146 6.25002 26.543Z" fill="#12123D"/>
<path d="M1.75002 13.7931C1.74935 13.3281 1.60504 12.8744 1.33651 12.4944C1.06799 12.1147 0.6883 11.8271 0.25 11.6714V15.9149C0.688283 15.7592 1.06797 15.4716 1.33651 15.0919C1.60504 14.7119 1.74935 14.2582 1.75002 13.7932V13.7931Z" fill="#12123D"/>
<path d="M31.75 8.10303V14.7737C33.1569 13.6838 34.8712 13.0644 36.6498 13.0028L31.75 8.10303Z" fill="#12123D"/>
<path d="M2.50002 34.0429C2.50002 33.4463 2.26297 32.8737 1.84109 32.4519C1.41921 32.0301 0.846633 31.793 0.250061 31.793V36.293C0.84671 36.293 1.41929 36.0559 1.84109 35.634C2.26289 35.2122 2.50002 34.6396 2.50002 34.043V34.0429Z" fill="#12123D"/>
<path d="M10.75 20.5432C10.7507 21.0083 10.895 21.462 11.1635 21.8419C11.432 22.2216 11.8117 22.5092 12.25 22.6649V18.4214C11.8118 18.5771 11.4321 18.8647 11.1635 19.2444C10.895 19.6244 10.7507 20.0781 10.75 20.5431V20.5432Z" fill="#12123D"/>
<path d="M32.5 27.293C32.5 28.1213 31.8284 28.793 31 28.793C30.1717 28.793 29.5 28.1213 29.5 27.293C29.5 26.4646 30.1717 25.793 31 25.793C31.8284 25.793 32.5 26.4646 32.5 27.293Z" fill="#12123D"/>
<path d="M25 20.543C25 21.3713 24.3284 22.043 23.5 22.043C22.6717 22.043 22 21.3713 22 20.543C22 19.7146 22.6717 19.043 23.5 19.043C24.3284 19.043 25 19.7146 25 20.543Z" fill="#12123D"/>
<path d="M23.5 31.793C23.5 33.4497 22.1567 34.793 20.5 34.793C18.8433 34.793 17.5 33.4497 17.5 31.793C17.5 30.1363 18.8433 28.793 20.5 28.793C22.1567 28.793 23.5 30.1363 23.5 31.793Z" fill="#12123D"/>
<path d="M21.25 12.293C21.25 13.5355 20.2425 14.543 19 14.543C17.7575 14.543 16.75 13.5355 16.75 12.293C16.75 11.0505 17.7575 10.043 19 10.043C20.2425 10.043 21.25 11.0505 21.25 12.293Z" fill="#12123D"/>
<path d="M31.6429 17.1794C31.5073 17.405 31.2632 17.543 31 17.543C30.9324 17.543 30.8651 17.5339 30.7998 17.5159C30.4747 17.4258 30.25 17.1301 30.25 16.793V7.04297H13.75V41.543H22.075C22.3064 40.4039 23.0527 39.4363 24.096 38.9236C25.139 38.411 26.3611 38.411 27.404 38.9236C28.4474 39.4362 29.1937 40.4039 29.425 41.543H37.75V32.543H35.5C35.2117 32.543 34.9486 32.3779 34.8237 32.1178C34.6988 31.8579 34.734 31.5492 34.9144 31.3242L37.75 27.7798V23.4679C36.611 23.2366 35.6433 22.4903 35.1307 21.4469C34.6181 20.404 34.6181 19.1819 35.1307 18.1389C35.6433 17.0956 36.611 16.3493 37.75 16.1179V14.4904C36.3819 14.4455 33.175 14.6307 31.6429 17.1793V17.1794ZM19 8.54278C19.9945 8.54278 20.9483 8.93787 21.6518 9.64095C22.355 10.3444 22.75 11.2983 22.75 12.2928C22.75 13.2872 22.3549 14.2411 21.6518 14.9446C20.9484 15.6477 19.9945 16.0428 19 16.0428C18.0056 16.0428 17.0517 15.6477 16.3482 14.9446C15.6451 14.2412 15.25 13.2872 15.25 12.2928C15.2514 11.2987 15.6468 10.3454 16.3496 9.64232C17.0527 8.93954 18.0059 8.54415 19 8.54278ZM20.5 36.2928C19.3064 36.2928 18.162 35.8187 17.3179 34.9749C16.4741 34.1308 16 32.9864 16 31.7928C16 30.5991 16.4741 29.4548 17.3179 28.6106C18.162 27.7669 19.3064 27.2928 20.5 27.2928C21.6937 27.2928 22.838 27.7669 23.6822 28.6106C24.5259 29.4547 25 30.5991 25 31.7928C24.9987 32.9858 24.5242 34.1299 23.6808 34.9736C22.837 35.817 21.693 36.2914 20.5 36.2928ZM23.5 23.5428C22.7045 23.5428 21.9414 23.2267 21.3786 22.6642C20.8161 22.1014 20.5 21.3383 20.5 20.5428C20.5 19.7473 20.8161 18.9842 21.3786 18.4214C21.9414 17.8589 22.7045 17.5428 23.5 17.5428C24.2955 17.5428 25.0586 17.8589 25.6214 18.4214C26.1839 18.9842 26.5 19.7473 26.5 20.5428C26.5 21.3383 26.1839 22.1014 25.6214 22.6642C25.0586 23.2267 24.2955 23.5428 23.5 23.5428ZM33.25 38.5428H31.75V37.0428H33.25V38.5428ZM31 30.2928C30.2045 30.2928 29.4414 29.9767 28.8786 29.4142C28.3161 28.8514 28 28.0883 28 27.2928C28 26.4973 28.3161 25.7342 28.8786 25.1714C29.4414 24.6089 30.2045 24.2928 31 24.2928C31.7955 24.2928 32.5586 24.6089 33.1214 25.1714C33.6839 25.7342 34 26.4973 34 27.2928C34 28.0883 33.6839 28.8514 33.1214 29.4142C32.5586 29.9767 31.7955 30.2928 31 30.2928ZM36.25 38.5428V40.0428H34.75V38.5428H36.25Z" fill="#12123D"/>
<path d="M5.50002 0.292969H7.00002V4.79297H5.50002V0.292969Z" fill="#12123D"/>
</svg>
