<svg width="276" height="276" viewBox="0 0 276 276" fill="none" xmlns="http://www.w3.org/2000/svg">
<path d="M59.3014 240.308V257.16H83.9482H111.129V240.308H59.3014Z" fill="#F5F5F5"/>
<path d="M57.1265 235.599V240.308H112.945V235.599H83.9481H57.1265Z" fill="#E0E0E0"/>
<path d="M85.0356 257.16H111.129V240.308H112.945V235.599H83.9481V239.872L85.0356 257.16Z" fill="#E0E0E0"/>
<path d="M77.0592 243.023H66.5491V245.563H77.0592V243.023Z" fill="#E0E0E0"/>
<path d="M78.6931 248.737H65.1967V254.091H78.6931V248.737Z" fill="white"/>
<path d="M67.2777 218.769V235.621H91.9245H119.105V218.769H67.2777Z" fill="#F5F5F5"/>
<path d="M65.1029 214.054V218.769H120.916V214.054H91.9246H65.1029Z" fill="#E0E0E0"/>
<path d="M93.012 235.621H119.105V218.769H120.916V214.054H91.9246V218.332L93.012 235.621Z" fill="#E0E0E0"/>
<path d="M85.0356 221.484H74.5255V224.024H85.0356V221.484Z" fill="#E0E0E0"/>
<path d="M86.6695 227.192H73.1731V232.547H86.6695V227.192Z" fill="white"/>
<path d="M67.5482 32.9763C68.9465 32.1345 70.4499 31.4811 72.0194 31.0333L72.9357 26.6173L80.4043 26.4958L81.5083 30.8787C83.0913 31.2695 84.6153 31.8691 86.0402 32.6617L89.8159 30.1887L95.1924 35.3775L92.8519 39.2415C93.6961 40.6386 94.3495 42.1424 94.7949 43.7127L99.2109 44.629L99.3379 52.1031L94.944 53.1574C94.5532 54.7404 93.9536 56.2644 93.161 57.6894L95.634 61.465L90.4452 66.8415L86.5812 64.501C85.1841 65.3452 83.6804 65.9987 82.11 66.4441L81.1937 70.8601L73.7251 70.987L72.6211 66.6042C71.0381 66.2134 69.5141 65.6138 68.0892 64.8212L64.3135 67.2942L58.937 62.1054L61.2775 58.2414C60.4335 56.8462 59.78 55.3443 59.3345 53.7757L54.9185 52.8538L54.7915 45.3853L59.1744 44.3089C59.5652 42.7259 60.1648 41.2019 60.9573 39.777L58.512 36.0123L63.7008 30.6358L67.5648 32.9763H67.5482ZM71.5337 42.9123C70.4325 44.0527 69.6942 45.494 69.4121 47.054C69.1301 48.614 69.317 50.2225 69.9492 51.6763C70.5814 53.13 71.6305 54.3637 72.9638 55.2212C74.2971 56.0787 75.8548 56.5215 77.4398 56.4937C79.0249 56.4659 80.566 55.9687 81.8685 55.065C83.1709 54.1613 84.1761 52.8916 84.757 51.4166C85.3378 49.9416 85.4682 48.3275 85.1316 46.7783C84.7951 45.2292 84.0067 43.8147 82.8662 42.7136C81.3348 41.2394 79.2806 40.4339 77.1554 40.4743C75.0301 40.5147 73.0079 41.3976 71.5337 42.9289V42.9123Z" fill="#EBEBEB"/>
<path d="M187.724 24.0726C189.387 23.0682 191.177 22.2904 193.045 21.7597L194.149 16.4937L203.042 16.3391L204.323 21.561C206.209 22.0258 208.024 22.7405 209.721 23.6862L214.22 20.7386L220.623 26.921L217.836 31.5191C218.841 33.1815 219.619 34.9712 220.149 36.8404L225.415 37.9444L225.569 46.8426L220.347 48.1233C219.88 50.0087 219.165 51.8239 218.222 53.5218L221.17 58.0206L214.987 64.4183L210.389 61.6307C208.728 62.6383 206.938 63.4163 205.068 63.9436L203.964 69.2097L195.066 69.3697L193.785 64.1423C191.898 63.68 190.082 62.9651 188.386 62.0171L183.888 64.9648L177.49 58.7879L180.278 54.1898C179.271 52.528 178.493 50.7381 177.965 48.8685L172.699 47.7645L172.539 38.8662L177.766 37.5856C178.23 35.6993 178.945 33.8836 179.891 32.187L176.944 27.6937L183.12 21.2906L187.719 24.0506L187.724 24.0726ZM192.471 35.9241C191.16 37.2822 190.282 38.9985 189.946 40.856C189.611 42.7135 189.833 44.6288 190.586 46.3597C191.339 48.0906 192.589 49.5593 194.176 50.5802C195.764 51.6011 197.619 52.1283 199.506 52.0951C201.393 52.0619 203.228 51.4698 204.779 50.3937C206.33 49.3176 207.527 47.8059 208.218 46.0496C208.91 44.2933 209.065 42.3713 208.665 40.5268C208.264 38.6822 207.326 36.9979 205.968 35.6867C204.146 33.9296 201.701 32.9676 199.17 33.0122C196.64 33.0567 194.23 34.104 192.471 35.9241V35.9241Z" fill="#EBEBEB"/>
<path d="M189.071 96.313C190.37 95.5283 191.768 94.9212 193.228 94.5079L194.083 90.3955L201.033 90.2686L202.032 94.3534C203.505 94.716 204.923 95.2729 206.249 96.0094L209.766 93.7075L214.761 98.5375L212.586 102.126C213.371 103.424 213.978 104.822 214.391 106.282L218.504 107.138L218.631 114.087L214.546 115.092C214.182 116.565 213.626 117.983 212.89 119.309L215.192 122.82L210.362 127.821L206.774 125.641C205.474 126.425 204.076 127.034 202.617 127.451L201.762 131.564L194.812 131.685L193.807 127.606C192.334 127.243 190.916 126.686 189.59 125.95L186.079 128.252L181.056 123.416L183.236 119.828C182.452 118.529 181.843 117.131 181.426 115.672L177.336 114.816L177.192 107.866L181.271 106.867C181.634 105.394 182.191 103.976 182.927 102.65L180.625 99.1337L185.45 94.1326L189.043 96.313H189.071ZM192.775 105.57C191.75 106.631 191.063 107.972 190.8 109.423C190.537 110.874 190.71 112.371 191.298 113.724C191.886 115.077 192.862 116.225 194.102 117.023C195.342 117.822 196.792 118.234 198.267 118.209C199.741 118.183 201.176 117.721 202.388 116.88C203.6 116.04 204.535 114.858 205.076 113.486C205.617 112.114 205.738 110.612 205.425 109.17C205.113 107.729 204.379 106.413 203.318 105.388C201.896 104.014 199.986 103.262 198.009 103.296C196.032 103.33 194.149 104.148 192.775 105.57V105.57Z" fill="#E0E0E0"/>
<path d="M226.171 74.9284C226.893 74.4937 227.668 74.1559 228.478 73.9238L228.953 71.6385L232.817 71.5723L233.369 73.841C234.188 74.0399 234.975 74.3501 235.71 74.7628L237.664 73.4822L240.424 76.1649L239.215 78.1576C239.652 78.8801 239.99 79.658 240.219 80.4705L242.505 80.9452L242.571 84.8092L240.302 85.3612C240.102 86.1785 239.794 86.9656 239.386 87.7017L240.661 89.6558L237.978 92.4158L235.986 91.2069C235.264 91.6416 234.488 91.9794 233.678 92.2115L233.198 94.4968L229.334 94.5631L228.782 92.2943C227.964 92.092 227.177 91.782 226.441 91.3725L224.487 92.6531L221.727 89.9704L222.936 87.9777C222.501 87.2541 222.164 86.4765 221.932 85.6648L219.646 85.1901L219.58 81.3261L221.849 80.7741C222.051 79.9566 222.361 79.1696 222.771 78.4336L221.49 76.4795L224.173 73.7195L226.171 74.9284ZM228.224 80.0731C227.657 80.6628 227.277 81.4074 227.133 82.2128C226.988 83.0183 227.086 83.8485 227.413 84.5986C227.74 85.3487 228.282 85.9849 228.971 86.4271C229.66 86.8692 230.464 87.0974 231.282 87.0827C232.1 87.0681 232.896 86.8113 233.568 86.3448C234.24 85.8783 234.759 85.2231 235.059 84.4618C235.359 83.7005 235.427 82.8673 235.254 82.0676C235.081 81.2678 234.675 80.5372 234.087 79.9682C233.695 79.5894 233.233 79.2917 232.726 79.0919C232.219 78.8921 231.678 78.7943 231.134 78.8041C230.589 78.8138 230.052 78.9309 229.553 79.1487C229.053 79.3664 228.602 79.6806 228.224 80.0731V80.0731Z" fill="#F5F5F5"/>
<path d="M115.859 24.0837C116.58 23.6467 117.356 23.3088 118.167 23.0791L118.641 20.7938L122.505 20.7275L123.057 22.9907C123.874 23.1946 124.661 23.5045 125.398 23.9126L127.352 22.6319L130.112 25.3147L128.903 27.3074C129.34 28.0279 129.678 28.804 129.908 29.6147L132.193 30.0895L132.259 33.9535L129.99 34.5055C129.79 35.3228 129.482 36.1098 129.074 36.8459L130.349 38.8L127.667 41.56L125.674 40.3511C124.961 40.8021 124.19 41.1549 123.383 41.3999L122.903 43.6852L119.039 43.757L118.487 41.4883C117.669 41.2859 116.882 40.9759 116.146 40.5664L114.192 41.8471L111.432 39.1643L112.608 37.144C112.173 36.4224 111.835 35.6466 111.603 34.8367L109.324 34.3619L109.252 30.4979L111.521 29.9459C111.727 29.1255 112.043 28.3365 112.459 27.5999L111.178 25.6514L113.861 22.8914L115.859 24.1003V24.0837ZM117.913 29.2559C117.345 29.8456 116.965 30.5903 116.821 31.3957C116.677 32.2012 116.774 33.0314 117.101 33.7815C117.429 34.5315 117.971 35.1678 118.659 35.61C119.348 36.0521 120.152 36.2803 120.97 36.2656C121.788 36.251 122.584 35.9942 123.256 35.5277C123.929 35.0612 124.448 34.406 124.748 33.6447C125.048 32.8834 125.116 32.0502 124.942 31.2504C124.769 30.4506 124.363 29.7201 123.775 29.1511C123.383 28.773 122.921 28.4758 122.414 28.2764C121.907 28.0771 121.366 27.9795 120.822 27.9892C120.278 27.999 119.741 28.1159 119.241 28.3332C118.742 28.5505 118.291 28.8641 117.913 29.2559V29.2559Z" fill="#F5F5F5"/>
<path d="M81.0888 86.4321C81.8093 85.9951 82.5854 85.6572 83.3962 85.4274L83.8709 83.1422L87.7349 83.0759L88.2869 85.3446C89.1072 85.5436 89.8965 85.8537 90.6329 86.2665L92.5814 84.9859L95.3414 87.6686L94.127 89.6613C94.5651 90.3832 94.903 91.1613 95.1317 91.9742L97.417 92.4489L97.4832 96.3129L95.22 96.8649C95.0176 97.6824 94.7077 98.4694 94.2982 99.2054L95.5733 101.159L92.8961 103.919L90.8978 102.711C90.1762 103.145 89.4004 103.483 88.5905 103.715L88.1158 106L84.2518 106.067L83.6998 103.798C82.8802 103.597 82.0912 103.287 81.3538 102.876L79.4052 104.157L76.6452 101.474L77.8596 99.4814C77.4225 98.7589 77.0846 97.981 76.855 97.1685L74.5697 96.6938L74.4979 92.8298L76.7666 92.2778C76.9681 91.46 77.2781 90.6728 77.6885 89.9373L76.4078 87.9832L79.0906 85.2232L81.0888 86.4321V86.4321ZM83.1478 91.5767C82.5796 92.1661 82.199 92.9108 82.054 93.7165C81.909 94.5222 82.0061 95.3528 82.333 96.1033C82.66 96.8538 83.2021 97.4905 83.8909 97.933C84.5796 98.3755 85.3841 98.6038 86.2026 98.5892C87.0212 98.5745 87.8169 98.3175 88.4894 97.8507C89.1619 97.3838 89.6809 96.7281 89.9808 95.9663C90.2806 95.2046 90.3479 94.371 90.1742 93.571C90.0004 92.7711 89.5934 92.0405 89.0045 91.4719C88.6132 91.0939 88.1512 90.7969 87.645 90.5976C87.1388 90.3983 86.5983 90.3008 86.0544 90.3105C85.5105 90.3202 84.9738 90.4371 84.4751 90.6543C83.9763 90.8716 83.5253 91.185 83.1478 91.5767V91.5767Z" fill="#F5F5F5"/>
<path d="M255.394 257.701C255.394 257.778 202.832 257.845 138.006 257.845C73.1787 257.845 20.6062 257.784 20.6062 257.701C20.6062 257.618 73.1566 257.558 138.006 257.558C202.855 257.558 255.394 257.624 255.394 257.701Z" fill="#12123D"/>
<path d="M177.882 257.596L106.299 257.552C97.6875 257.552 90.7102 250.21 90.7157 241.163L90.7488 52.5613C90.7488 43.5085 97.7371 36.1725 106.354 36.178L177.937 36.2221C186.548 36.2221 193.526 43.5637 193.52 52.611L193.487 241.224C193.487 250.266 186.499 257.602 177.882 257.596Z" fill="#12123D"/>
<path d="M177.86 42.8902H163.983C162.122 42.8902 160.61 44.5462 160.61 46.5886V49.2327C160.61 51.2806 159.103 52.9366 157.243 52.9366H130.195C128.329 52.9366 126.822 51.2806 126.822 49.2327V46.5831C126.822 44.5407 125.315 42.8792 123.455 42.8792H118.57H106.426C100.392 42.8792 95.496 48.0128 95.496 54.3552L95.4629 238.447C95.4629 244.784 100.348 249.923 106.376 249.923L177.821 249.967C183.855 249.967 188.745 244.834 188.745 238.491L188.784 54.3718C188.784 48.0238 183.893 42.8957 177.86 42.8902Z" fill="white"/>
<path d="M155.244 133.291C155.244 134.274 154.953 135.234 154.407 136.051C153.861 136.868 153.085 137.505 152.178 137.881C151.27 138.257 150.271 138.355 149.307 138.164C148.344 137.972 147.458 137.499 146.764 136.804C146.069 136.109 145.596 135.224 145.404 134.26C145.212 133.297 145.311 132.298 145.687 131.39C146.063 130.482 146.699 129.706 147.516 129.16C148.333 128.615 149.294 128.323 150.276 128.323C151.594 128.323 152.858 128.847 153.789 129.778C154.721 130.71 155.244 131.974 155.244 133.291V133.291Z" fill="#D4AA00"/>
<path d="M135.494 138.602C138.421 138.602 140.793 136.224 140.793 133.291C140.793 130.359 138.421 127.981 135.494 127.981C132.567 127.981 130.195 130.359 130.195 133.291C130.195 136.224 132.567 138.602 135.494 138.602Z" fill="#D4AA00"/>
<path d="M124.139 129.532C127.246 129.532 129.764 127.009 129.764 123.896C129.764 120.784 127.246 118.26 124.139 118.26C121.033 118.26 118.514 120.784 118.514 123.896C118.514 127.009 121.033 129.532 124.139 129.532Z" fill="#D4AA00"/>
<path d="M121.838 115.335C125.081 115.335 127.711 112.698 127.711 109.445C127.711 106.192 125.081 103.555 121.838 103.555C118.594 103.555 115.964 106.192 115.964 109.445C115.964 112.698 118.594 115.335 121.838 115.335Z" fill="#D4AA00"/>
<path d="M129.03 102.887C132.383 102.887 135.102 100.161 135.102 96.7985C135.102 93.4359 132.383 90.71 129.03 90.71C125.677 90.71 122.958 93.4359 122.958 96.7985C122.958 100.161 125.677 102.887 129.03 102.887Z" fill="#D4AA00"/>
<path d="M142.858 98.4324C146.513 98.4324 149.476 95.4618 149.476 91.7974C149.476 88.133 146.513 85.1624 142.858 85.1624C139.202 85.1624 136.239 88.133 136.239 91.7974C136.239 95.4618 139.202 98.4324 142.858 98.4324Z" fill="#D4AA00"/>
<path d="M166.053 123.78C166.051 124.731 165.767 125.659 165.237 126.449C164.707 127.238 163.956 127.852 163.077 128.214C162.198 128.577 161.232 128.67 160.3 128.484C159.368 128.297 158.512 127.838 157.841 127.165C157.17 126.492 156.713 125.636 156.528 124.703C156.344 123.771 156.44 122.805 156.804 121.927C157.168 121.049 157.784 120.299 158.575 119.771C159.365 119.243 160.294 118.961 161.245 118.961C161.877 118.962 162.503 119.087 163.086 119.33C163.67 119.573 164.2 119.928 164.647 120.375C165.093 120.823 165.447 121.354 165.688 121.938C165.93 122.522 166.053 123.148 166.053 123.78V123.78Z" fill="#D4AA00"/>
<path d="M163.817 113.756C166.28 113.756 168.277 111.754 168.277 109.285C168.277 106.816 166.28 104.814 163.817 104.814C161.354 104.814 159.357 106.816 159.357 109.285C159.357 111.754 161.354 113.756 163.817 113.756Z" fill="#D4AA00"/>
<path d="M156.398 100.712C158.648 100.712 160.472 98.8835 160.472 96.6275C160.472 94.3716 158.648 92.5427 156.398 92.5427C154.148 92.5427 152.324 94.3716 152.324 96.6275C152.324 98.8835 154.148 100.712 156.398 100.712Z" fill="#D4AA00"/>
<g opacity="0.5">
<path d="M155.244 133.291C155.244 134.274 154.953 135.234 154.407 136.051C153.861 136.868 153.085 137.505 152.178 137.881C151.27 138.257 150.271 138.355 149.307 138.164C148.344 137.972 147.458 137.499 146.764 136.804C146.069 136.109 145.596 135.224 145.404 134.26C145.212 133.297 145.311 132.298 145.687 131.39C146.063 130.482 146.699 129.706 147.516 129.16C148.333 128.615 149.294 128.323 150.276 128.323C151.594 128.323 152.858 128.847 153.789 129.778C154.721 130.71 155.244 131.974 155.244 133.291V133.291Z" fill="white"/>
</g>
<g opacity="0.4">
<path d="M135.494 138.602C138.421 138.602 140.793 136.224 140.793 133.291C140.793 130.359 138.421 127.981 135.494 127.981C132.567 127.981 130.195 130.359 130.195 133.291C130.195 136.224 132.567 138.602 135.494 138.602Z" fill="white"/>
</g>
<g opacity="0.3">
<path d="M124.139 129.532C127.246 129.532 129.764 127.009 129.764 123.896C129.764 120.784 127.246 118.26 124.139 118.26C121.033 118.26 118.514 120.784 118.514 123.896C118.514 127.009 121.033 129.532 124.139 129.532Z" fill="white"/>
</g>
<g opacity="0.2">
<path d="M121.838 115.335C125.081 115.335 127.711 112.698 127.711 109.445C127.711 106.192 125.081 103.555 121.838 103.555C118.594 103.555 115.964 106.192 115.964 109.445C115.964 112.698 118.594 115.335 121.838 115.335Z" fill="white"/>
</g>
<g opacity="0.1">
<path d="M129.03 102.887C132.383 102.887 135.102 100.161 135.102 96.7985C135.102 93.4359 132.383 90.71 129.03 90.71C125.677 90.71 122.958 93.4359 122.958 96.7985C122.958 100.161 125.677 102.887 129.03 102.887Z" fill="white"/>
</g>
<g opacity="0.2">
<path d="M142.858 98.4324C146.513 98.4324 149.476 95.4618 149.476 91.7974C149.476 88.133 146.513 85.1624 142.858 85.1624C139.202 85.1624 136.239 88.133 136.239 91.7974C136.239 95.4618 139.202 98.4324 142.858 98.4324Z" fill="white"/>
</g>
<g opacity="0.6">
<path d="M166.053 123.78C166.051 124.731 165.767 125.659 165.237 126.449C164.707 127.238 163.956 127.852 163.077 128.214C162.198 128.577 161.232 128.67 160.3 128.484C159.368 128.297 158.512 127.838 157.841 127.165C157.17 126.492 156.713 125.636 156.528 124.703C156.344 123.771 156.44 122.805 156.804 121.927C157.168 121.049 157.784 120.299 158.575 119.771C159.365 119.243 160.294 118.961 161.245 118.961C161.877 118.962 162.503 119.087 163.086 119.33C163.67 119.573 164.2 119.928 164.647 120.375C165.093 120.823 165.447 121.354 165.688 121.938C165.93 122.522 166.053 123.148 166.053 123.78V123.78Z" fill="white"/>
</g>
<g opacity="0.7">
<path d="M163.817 113.756C166.28 113.756 168.277 111.754 168.277 109.285C168.277 106.816 166.28 104.814 163.817 104.814C161.354 104.814 159.357 106.816 159.357 109.285C159.357 111.754 161.354 113.756 163.817 113.756Z" fill="white"/>
</g>
<g opacity="0.8">
<path d="M156.398 100.712C158.648 100.712 160.472 98.8835 160.472 96.6275C160.472 94.3716 158.648 92.5427 156.398 92.5427C154.148 92.5427 152.324 94.3716 152.324 96.6275C152.324 98.8835 154.148 100.712 156.398 100.712Z" fill="white"/>
</g>
<path d="M126.993 181.056C126.989 180.816 127.034 180.579 127.126 180.357C127.217 180.136 127.353 179.935 127.524 179.768C127.696 179.601 127.9 179.471 128.124 179.386C128.348 179.301 128.587 179.262 128.826 179.273C129.063 179.264 129.3 179.305 129.521 179.394C129.741 179.482 129.941 179.616 130.106 179.786L129.869 180.018C129.735 179.882 129.574 179.775 129.396 179.704C129.218 179.633 129.028 179.599 128.837 179.604C128.646 179.604 128.457 179.642 128.281 179.715C128.105 179.788 127.945 179.895 127.81 180.029C127.675 180.164 127.569 180.324 127.496 180.5C127.423 180.676 127.385 180.865 127.385 181.056C127.385 181.247 127.423 181.435 127.496 181.611C127.569 181.788 127.675 181.948 127.81 182.082C127.945 182.217 128.105 182.324 128.281 182.397C128.457 182.47 128.646 182.508 128.837 182.508C129.029 182.513 129.219 182.479 129.397 182.407C129.575 182.334 129.736 182.226 129.869 182.088L130.106 182.32C129.94 182.491 129.74 182.626 129.518 182.716C129.297 182.805 129.059 182.847 128.82 182.839C128.581 182.849 128.343 182.81 128.12 182.724C127.897 182.638 127.693 182.508 127.522 182.341C127.351 182.174 127.216 181.974 127.125 181.753C127.034 181.532 126.989 181.295 126.993 181.056V181.056Z" fill="#12123D"/>
<path d="M133.816 179.273V182.778H133.451V181.161H131.243V182.778H130.874V179.273H131.243V180.841H133.451V179.273H133.816Z" fill="#12123D"/>
<path d="M137.448 182.458V182.778H134.975V179.273H137.371V179.593H135.345V180.841H137.155V181.161H135.345V182.458H137.448Z" fill="#12123D"/>
<path d="M137.967 181.056C137.963 180.816 138.008 180.579 138.099 180.357C138.191 180.136 138.326 179.935 138.498 179.768C138.67 179.601 138.874 179.471 139.098 179.386C139.321 179.301 139.56 179.262 139.8 179.273C140.037 179.264 140.274 179.305 140.494 179.394C140.715 179.482 140.914 179.616 141.08 179.786L140.843 180.018C140.708 179.882 140.547 179.775 140.37 179.704C140.192 179.633 140.002 179.599 139.811 179.604C139.62 179.604 139.431 179.642 139.255 179.715C139.079 179.788 138.919 179.895 138.784 180.029C138.649 180.164 138.542 180.324 138.469 180.5C138.396 180.676 138.359 180.865 138.359 181.056C138.359 181.247 138.396 181.435 138.469 181.611C138.542 181.788 138.649 181.948 138.784 182.082C138.919 182.217 139.079 182.324 139.255 182.397C139.431 182.47 139.62 182.508 139.811 182.508C140.002 182.513 140.193 182.479 140.371 182.407C140.549 182.334 140.709 182.226 140.843 182.088L141.08 182.32C140.914 182.491 140.714 182.626 140.492 182.716C140.271 182.805 140.033 182.847 139.794 182.839C139.555 182.849 139.317 182.81 139.094 182.724C138.871 182.638 138.667 182.508 138.496 182.341C138.325 182.174 138.19 181.974 138.099 181.753C138.008 181.532 137.963 181.295 137.967 181.056Z" fill="#12123D"/>
<path d="M142.968 181.133L142.25 181.862V182.778H141.864V179.273H142.234V181.393L144.287 179.273H144.712L143.2 180.863L144.817 182.778H144.381L142.968 181.133Z" fill="#12123D"/>
<path d="M145.419 179.273H145.789V182.778H145.419V179.273Z" fill="#12123D"/>
<path d="M149.846 179.273V182.778H149.542L147.296 179.952V182.795H146.926V179.29H147.229L149.482 182.138V179.29L149.846 179.273Z" fill="#12123D"/>
<path d="M153.456 181.056H153.809V182.392C153.451 182.692 152.996 182.851 152.529 182.839C152.295 182.839 152.063 182.793 151.846 182.703C151.63 182.614 151.434 182.482 151.268 182.317C151.102 182.151 150.971 181.955 150.881 181.738C150.792 181.522 150.746 181.29 150.746 181.056C150.746 180.822 150.792 180.59 150.881 180.374C150.971 180.157 151.102 179.961 151.268 179.795C151.434 179.63 151.63 179.498 151.846 179.409C152.063 179.319 152.295 179.273 152.529 179.273C152.769 179.262 153.009 179.302 153.234 179.389C153.458 179.477 153.662 179.61 153.831 179.781L153.6 180.013C153.431 179.834 153.22 179.7 152.987 179.623C152.753 179.546 152.505 179.529 152.263 179.572C152.021 179.616 151.794 179.719 151.602 179.872C151.409 180.025 151.259 180.224 151.162 180.45C151.066 180.676 151.028 180.923 151.051 181.167C151.074 181.412 151.158 181.647 151.295 181.851C151.431 182.056 151.617 182.222 151.834 182.337C152.052 182.452 152.294 182.51 152.54 182.508C152.866 182.518 153.187 182.423 153.456 182.237V181.056Z" fill="#12123D"/>
<path d="M154.593 182.53C154.592 182.495 154.599 182.459 154.612 182.427C154.625 182.394 154.644 182.364 154.669 182.339C154.693 182.314 154.723 182.294 154.755 182.28C154.788 182.266 154.823 182.259 154.858 182.259C154.93 182.259 154.999 182.288 155.049 182.339C155.1 182.389 155.129 182.458 155.129 182.53C155.129 182.602 155.1 182.671 155.05 182.723C154.999 182.775 154.93 182.804 154.858 182.806C154.823 182.805 154.788 182.797 154.755 182.783C154.723 182.769 154.693 182.748 154.668 182.723C154.644 182.697 154.625 182.667 154.612 182.634C154.599 182.601 154.592 182.565 154.593 182.53Z" fill="#12123D"/>
<path d="M155.664 182.53C155.663 182.495 155.67 182.459 155.683 182.427C155.696 182.394 155.715 182.364 155.74 182.339C155.764 182.314 155.794 182.294 155.826 182.28C155.859 182.266 155.894 182.259 155.929 182.259C155.965 182.259 156 182.266 156.033 182.28C156.065 182.293 156.095 182.313 156.12 182.339C156.145 182.364 156.165 182.393 156.179 182.426C156.192 182.459 156.199 182.494 156.199 182.53C156.2 182.602 156.171 182.671 156.121 182.723C156.07 182.775 156.001 182.804 155.929 182.806C155.893 182.806 155.858 182.799 155.825 182.785C155.792 182.771 155.762 182.75 155.738 182.724C155.713 182.699 155.694 182.668 155.681 182.635C155.668 182.601 155.663 182.565 155.664 182.53Z" fill="#12123D"/>
<path d="M156.713 182.53C156.712 182.495 156.718 182.459 156.731 182.427C156.744 182.394 156.764 182.364 156.788 182.339C156.813 182.314 156.843 182.294 156.875 182.28C156.908 182.266 156.942 182.259 156.978 182.259C157.013 182.259 157.048 182.266 157.08 182.28C157.113 182.294 157.142 182.314 157.167 182.339C157.192 182.364 157.211 182.394 157.224 182.427C157.237 182.459 157.243 182.495 157.243 182.53C157.243 182.565 157.237 182.601 157.224 182.634C157.211 182.667 157.192 182.697 157.167 182.723C157.143 182.748 157.113 182.769 157.081 182.783C157.048 182.797 157.013 182.805 156.978 182.806C156.942 182.806 156.907 182.799 156.874 182.785C156.841 182.771 156.811 182.75 156.786 182.724C156.762 182.699 156.742 182.668 156.73 182.635C156.717 182.601 156.711 182.565 156.713 182.53V182.53Z" fill="#12123D"/>
<path d="M169.646 158.992H114.65C111.23 158.992 108.457 161.765 108.457 165.186V166.213C108.457 169.633 111.23 172.406 114.65 172.406H169.646C173.067 172.406 175.84 169.633 175.84 166.213V165.186C175.84 161.765 173.067 158.992 169.646 158.992Z" fill="#F5F5F5"/>
<path d="M139.722 158.992H114.65C111.23 158.992 108.457 161.765 108.457 165.186V166.213C108.457 169.633 111.23 172.406 114.65 172.406H139.722C143.143 172.406 145.916 169.633 145.916 166.213V165.186C145.916 161.765 143.143 158.992 139.722 158.992Z" fill="#D4AA00"/>
<path d="M162.023 166.704C162.023 167.399 161.543 167.929 160.571 167.929C160.304 167.941 160.036 167.898 159.786 167.803C159.535 167.708 159.307 167.563 159.114 167.377L159.269 167.146C159.438 167.316 159.64 167.45 159.863 167.538C160.087 167.626 160.326 167.668 160.566 167.659C161.333 167.659 161.725 167.272 161.725 166.72C161.725 166.168 161.361 165.766 160.235 165.766H159.396L159.616 163.751H161.824V164.027H159.881L159.721 165.49H160.312C161.565 165.462 162.023 165.942 162.023 166.704Z" fill="#D4AA00"/>
<path d="M165.302 166.704C165.302 167.399 164.822 167.929 163.85 167.929C163.583 167.941 163.315 167.898 163.065 167.803C162.814 167.708 162.586 167.563 162.393 167.377L162.548 167.146C162.717 167.316 162.919 167.45 163.142 167.538C163.366 167.626 163.605 167.668 163.845 167.659C164.612 167.659 164.998 167.272 164.998 166.72C164.998 166.168 164.64 165.766 163.514 165.766H162.674L162.89 163.751H165.098V164.027H163.149L162.995 165.49H163.585C164.838 165.462 165.302 165.942 165.302 166.704Z" fill="#D4AA00"/>
<path d="M165.755 164.822C165.755 164.148 166.13 163.718 166.665 163.718C167.201 163.718 167.587 164.165 167.587 164.822C167.587 165.478 167.206 165.926 166.665 165.926C166.124 165.926 165.755 165.5 165.755 164.822ZM167.361 164.822C167.361 164.27 167.079 163.905 166.665 163.905C166.251 163.905 165.981 164.253 165.981 164.822C165.981 165.39 166.257 165.743 166.665 165.743C167.074 165.743 167.361 165.396 167.361 164.822ZM169.194 163.718H169.464L166.632 167.874H166.378L169.194 163.718ZM168.233 166.776C168.233 166.097 168.608 165.672 169.149 165.672C169.69 165.672 170.06 166.113 170.06 166.776C170.06 167.438 169.69 167.88 169.149 167.88C168.608 167.88 168.233 167.46 168.233 166.781V166.776ZM169.834 166.776C169.834 166.224 169.558 165.854 169.149 165.854C168.741 165.854 168.454 166.202 168.454 166.776C168.454 167.35 168.735 167.697 169.149 167.697C169.563 167.697 169.834 167.35 169.834 166.781V166.776Z" fill="#D4AA00"/>
<g opacity="0.2">
<path d="M124.747 158.992L119.712 172.246H123.411L128.108 158.992H124.747Z" fill="white"/>
</g>
<g opacity="0.2">
<path d="M133.832 158.992L128.793 172.246H132.497L137.189 158.992H133.832Z" fill="white"/>
</g>
<g opacity="0.2">
<path d="M142.731 159.992L138.039 172.329H140.247C140.831 172.204 141.401 172.019 141.947 171.777L145.176 162.636C144.599 161.561 143.757 160.651 142.731 159.992V159.992Z" fill="white"/>
</g>
<g opacity="0.2">
<path d="M115.92 158.976L111.289 171.164C112.278 171.808 113.421 172.176 114.601 172.229L119.298 158.981L115.92 158.976Z" fill="white"/>
</g>
<path d="M169.525 172.406C170.032 172.375 170.537 172.302 171.032 172.185C172.454 171.822 173.704 170.972 174.565 169.784C175.187 168.934 175.581 167.938 175.707 166.892C175.77 166.292 175.784 165.688 175.751 165.086C175.727 164.439 175.601 163.8 175.376 163.193C174.997 162.152 174.347 161.231 173.493 160.525C172.639 159.82 171.612 159.355 170.518 159.18C169.695 159.093 168.867 159.066 168.04 159.097L114.772 159.141C114.138 159.151 113.508 159.248 112.901 159.428C112.302 159.628 111.735 159.913 111.217 160.273C110.202 161.002 109.432 162.022 109.009 163.199C108.264 165.523 108.507 168.327 110.113 170.126C110.895 171.032 111.923 171.692 113.072 172.025C114.176 172.367 115.407 172.24 116.588 172.268H123.51L147.456 172.296L163.602 172.345H168.018H169.155H169.547H169.155H168.018L163.602 172.373L147.456 172.417L123.51 172.45H114.816C114.204 172.445 113.595 172.36 113.006 172.196C111.791 171.848 110.705 171.15 109.883 170.191C109.061 169.231 108.538 168.051 108.38 166.798C108.315 166.165 108.301 165.528 108.336 164.893C108.362 164.246 108.491 163.607 108.716 163C109.168 161.762 109.986 160.691 111.062 159.931C111.605 159.556 112.198 159.26 112.823 159.053C113.459 158.862 114.119 158.76 114.783 158.75L168.051 158.788C168.893 158.789 169.735 158.851 170.568 158.976C171.692 159.16 172.745 159.642 173.619 160.372C174.493 161.103 175.155 162.054 175.536 163.127C176.342 165.754 175.867 168.321 174.664 169.839C173.782 171.04 172.503 171.889 171.054 172.235C170.838 172.29 170.619 172.329 170.397 172.351C170.238 172.378 170.078 172.391 169.917 172.389C169.657 172.412 169.525 172.406 169.525 172.406Z" fill="#12123D"/>
<path d="M114.976 232.563V237.067C114.976 237.156 114.952 237.243 114.907 237.32C114.862 237.396 114.797 237.459 114.719 237.502C114.641 237.545 114.553 237.566 114.465 237.563C114.376 237.561 114.289 237.534 114.214 237.487L110.671 235.235C110.601 235.189 110.544 235.127 110.505 235.053C110.465 234.98 110.444 234.898 110.444 234.815C110.444 234.732 110.465 234.65 110.505 234.577C110.544 234.504 110.601 234.441 110.671 234.396L114.214 232.143C114.289 232.096 114.376 232.07 114.465 232.067C114.553 232.064 114.641 232.086 114.719 232.129C114.797 232.171 114.862 232.234 114.907 232.311C114.952 232.387 114.976 232.474 114.976 232.563V232.563Z" fill="#E0E0E0"/>
<path d="M144.072 234.771C144.071 235.385 143.888 235.986 143.546 236.496C143.203 237.006 142.718 237.404 142.15 237.638C141.582 237.873 140.957 237.933 140.355 237.813C139.752 237.692 139.199 237.396 138.765 236.961C138.331 236.526 138.035 235.972 137.916 235.37C137.796 234.767 137.858 234.142 138.094 233.575C138.329 233.007 138.727 232.522 139.238 232.181C139.749 231.84 140.35 231.658 140.964 231.658C141.373 231.658 141.777 231.738 142.155 231.895C142.532 232.051 142.875 232.281 143.164 232.57C143.452 232.859 143.681 233.202 143.837 233.58C143.993 233.958 144.073 234.362 144.072 234.771V234.771Z" fill="#E0E0E0"/>
<path d="M171.092 232.066H167.427C166.857 232.066 166.395 232.528 166.395 233.098V236.78C166.395 237.35 166.857 237.812 167.427 237.812H171.092C171.663 237.812 172.125 237.35 172.125 236.78V233.098C172.125 232.528 171.663 232.066 171.092 232.066Z" fill="#E0E0E0"/>
<path d="M237.112 158.363C237.432 156.102 237.558 153.818 237.487 151.535C237.413 149.242 236.77 147.004 235.616 145.021C235.433 144.729 233.993 142.813 233.662 142.902C233.424 142.973 234.451 144.834 234.368 145.071C233.686 147.348 233.709 149.779 234.434 152.043C235.088 154.243 235.986 156.363 237.112 158.363" fill="#12123D"/>
<path d="M227.076 173.328C226.74 171.749 226.469 170.507 226.458 170.513C226.447 170.518 220.938 171.065 219.481 165.76C218.785 163.199 217.781 157.811 216.925 152.926C216.482 150.392 217.01 147.784 218.403 145.622C219.796 143.46 221.953 141.901 224.443 141.257L224.957 141.124C230.57 140.02 234.65 144.166 235.605 149.807L239.568 169.42L230.852 178.666L227.076 173.328Z" fill="#FFBE9D"/>
<path d="M226.458 170.485C228.914 169.835 231.133 168.494 232.85 166.621C232.85 166.621 232.21 170.998 226.778 171.893L226.458 170.485Z" fill="#EB996E"/>
<path d="M219.696 157.105C219.75 157.299 219.878 157.465 220.052 157.568C220.225 157.671 220.432 157.702 220.629 157.657C220.728 157.639 220.822 157.603 220.906 157.548C220.99 157.494 221.062 157.423 221.119 157.34C221.175 157.257 221.214 157.164 221.233 157.065C221.252 156.967 221.251 156.866 221.231 156.768C221.177 156.574 221.051 156.408 220.878 156.305C220.705 156.202 220.499 156.17 220.303 156.216C220.204 156.233 220.11 156.27 220.026 156.324C219.941 156.379 219.869 156.449 219.812 156.532C219.755 156.615 219.716 156.708 219.696 156.807C219.676 156.905 219.676 157.006 219.696 157.105Z" fill="#12123D"/>
<path d="M218.631 154.808C218.752 154.886 219.216 154.312 220.033 154.102C220.85 153.892 221.556 154.146 221.622 154.019C221.689 153.892 221.512 153.809 221.197 153.688C220.781 153.535 220.329 153.514 219.9 153.627C219.469 153.736 219.083 153.977 218.796 154.317C218.592 154.56 218.592 154.775 218.631 154.808Z" fill="#12123D"/>
<path d="M227.087 155.625C227.142 155.82 227.269 155.986 227.443 156.088C227.617 156.191 227.823 156.223 228.02 156.177C228.119 156.161 228.213 156.125 228.297 156.071C228.382 156.017 228.454 155.947 228.511 155.864C228.568 155.782 228.607 155.689 228.627 155.591C228.647 155.493 228.647 155.392 228.627 155.294C228.578 155.095 228.452 154.924 228.278 154.815C228.104 154.707 227.895 154.671 227.694 154.714C227.594 154.732 227.497 154.77 227.412 154.826C227.326 154.882 227.253 154.955 227.196 155.04C227.139 155.125 227.1 155.221 227.082 155.321C227.063 155.422 227.065 155.525 227.087 155.625V155.625Z" fill="#12123D"/>
<path d="M226.723 153.064C226.844 153.141 227.308 152.567 228.125 152.357C228.942 152.148 229.648 152.402 229.709 152.28C229.77 152.159 229.599 152.07 229.29 151.949C228.873 151.791 228.417 151.77 227.987 151.888C227.555 151.992 227.168 152.232 226.883 152.573C226.706 152.832 226.662 153.036 226.723 153.064Z" fill="#12123D"/>
<path d="M225.42 160.08C224.954 160.061 224.487 160.096 224.029 160.185C223.814 160.218 223.604 160.229 223.532 160.097C223.468 159.882 223.468 159.654 223.532 159.44C223.599 158.888 223.67 158.303 223.742 157.69C224.013 155.206 224.151 153.185 224.051 153.18C223.952 153.174 223.648 155.173 223.378 157.657C223.317 158.269 223.256 158.849 223.201 159.407C223.136 159.693 223.173 159.994 223.306 160.257C223.356 160.321 223.419 160.374 223.492 160.411C223.564 160.448 223.644 160.469 223.726 160.472C223.85 160.473 223.975 160.458 224.095 160.428C224.55 160.368 224.995 160.251 225.42 160.08Z" fill="#12123D"/>
<path d="M227.976 160.047C227.838 160.074 228.07 160.963 227.474 161.786C226.877 162.608 225.906 162.763 225.934 162.89C225.961 163.017 226.187 163.011 226.59 162.917C227.111 162.788 227.569 162.482 227.888 162.051C228.193 161.635 228.324 161.116 228.252 160.604C228.186 160.218 228.026 160.025 227.976 160.047Z" fill="#12123D"/>
<path d="M225.906 149.741C226.044 149.94 226.833 149.625 227.821 149.493C228.809 149.36 229.654 149.421 229.731 149.189C229.764 149.079 229.571 148.902 229.207 148.77C228.722 148.607 228.205 148.564 227.7 148.643C227.194 148.714 226.712 148.903 226.292 149.195C225.978 149.421 225.845 149.642 225.906 149.741Z" fill="#12123D"/>
<path d="M218.266 152.004C218.459 152.153 218.973 151.816 219.646 151.629C220.32 151.441 220.927 151.43 221.01 151.204C221.043 151.093 220.905 150.933 220.607 150.823C220.216 150.697 219.797 150.691 219.404 150.806C219.01 150.922 218.66 151.152 218.399 151.469C218.211 151.723 218.178 151.932 218.266 152.004Z" fill="#12123D"/>
<path d="M236.19 153.831C236.272 153.77 239.562 151.805 240.39 155.487C241.218 159.169 237.365 159.224 237.332 159.119C237.299 159.014 236.19 153.831 236.19 153.831Z" fill="#FFBE9D"/>
<path d="M238.138 157.463C238.138 157.463 238.216 157.491 238.331 157.519C238.498 157.548 238.67 157.513 238.812 157.419C239.016 157.217 239.162 156.964 239.235 156.687C239.308 156.409 239.305 156.117 239.226 155.841C239.163 155.523 239.031 155.224 238.839 154.963C238.78 154.856 238.695 154.765 238.592 154.698C238.489 154.632 238.371 154.592 238.249 154.582C238.171 154.58 238.096 154.605 238.034 154.652C237.973 154.699 237.93 154.766 237.912 154.841C237.884 154.957 237.912 155.024 237.912 155.035C237.912 155.046 237.818 154.99 237.818 154.83C237.816 154.732 237.849 154.636 237.912 154.56C237.954 154.51 238.005 154.47 238.063 154.44C238.121 154.411 238.184 154.393 238.249 154.389C238.405 154.384 238.561 154.42 238.7 154.493C238.839 154.565 238.957 154.672 239.044 154.803C239.27 155.085 239.423 155.419 239.491 155.774C239.634 156.52 239.413 157.298 238.939 157.568C238.847 157.621 238.744 157.651 238.639 157.657C238.534 157.662 238.428 157.643 238.331 157.601C238.166 157.552 238.127 157.474 238.138 157.463Z" fill="#EB996E"/>
<path d="M217.985 146.28C217.322 146.081 218.691 143.768 220.005 142.791C221.998 141.312 225.238 139.965 227.396 140.103C229.996 140.269 232.293 141.052 234.02 143.012C235.694 145.029 236.803 147.454 237.233 150.039C237.429 150.814 237.418 151.627 237.2 152.396C236.863 153.318 235.986 154.052 236.273 155.156C236.33 155.356 236.348 155.565 236.324 155.772C236.3 155.978 236.236 156.178 236.135 156.359C235.616 157.221 234.65 156.729 234.125 156.133C233.021 154.869 232.547 153.174 232.122 151.54C231.753 150.396 231.576 149.199 231.597 147.997C231.647 147.345 231.807 146.705 231.823 146.054C231.849 145.727 231.803 145.4 231.69 145.093C231.577 144.786 231.398 144.507 231.167 144.276C231.051 144.188 230.929 144.109 230.802 144.039C230.193 143.703 229.505 143.534 228.81 143.552C228.114 143.569 227.436 143.772 226.844 144.138C224.934 145.314 221.639 147.169 220.568 146.666C219.816 146.374 219.133 145.926 218.564 145.353L217.985 146.28Z" fill="#12123D"/>
<path d="M226.602 138.083C226.855 138.055 233.071 137.895 235.649 141.903C238.227 145.91 238.133 147.362 238.133 147.362C238.399 147.449 238.652 147.574 238.884 147.732C239.198 147.958 239.193 149.432 238.387 149.47C232 148.366 225.139 149.846 217.626 151.993L211.808 153.39C210.235 153.991 209.556 153.704 210.152 153.119C210.599 152.678 214.739 149.664 214.739 149.664L215.473 148.769L217.03 144.845C217.03 144.845 216.616 144.458 217.107 143.928C217.598 143.398 221.639 138.629 226.602 138.083Z" fill="#D4AA00"/>
<path d="M215.457 148.769C215.533 148.757 215.609 148.738 215.683 148.714L216.329 148.538C216.881 148.372 217.698 148.173 218.708 147.941C221.347 147.373 224.031 147.035 226.728 146.931C229.427 146.839 232.129 146.898 234.821 147.108C235.858 147.18 236.692 147.257 237.272 147.307L237.934 147.362H238.166L237.939 147.329L237.272 147.257C236.72 147.196 235.864 147.108 234.826 147.031C232.134 146.793 229.429 146.723 226.728 146.821C224.023 146.923 221.333 147.27 218.691 147.859C216.671 148.344 215.457 148.769 215.457 148.769Z" fill="#12123D"/>
<g opacity="0.3">
<path d="M232.624 139.303C232.624 139.303 226.027 139.855 223.538 141.963L223.825 141.715L221.44 143.575C221.264 143.759 221.05 143.901 220.812 143.992C220.574 144.083 220.319 144.119 220.066 144.1C221.031 142.818 222.227 141.729 223.593 140.887C226.016 139.319 230.129 137.867 232.624 139.303Z" fill="black"/>
</g>
<path d="M232.723 139.314C232.508 139.222 232.287 139.147 232.061 139.087C231.447 138.915 230.815 138.815 230.178 138.789C229.231 138.752 228.282 138.853 227.363 139.087C226.229 139.351 225.164 139.854 224.239 140.561C223.772 140.939 223.329 141.347 222.914 141.781C222.511 142.195 222.103 142.576 221.749 142.979C221.44 143.378 221.094 143.747 220.717 144.083C220.377 144.352 219.981 144.54 219.558 144.635C218.007 145.049 216.969 144.966 217.013 144.85C217.031 144.876 217.054 144.897 217.08 144.914C217.107 144.93 217.137 144.94 217.168 144.944C217.338 144.981 217.513 144.994 217.687 144.983C218.324 144.958 218.957 144.864 219.574 144.701C220.011 144.613 220.422 144.424 220.772 144.149C221.154 143.813 221.505 143.443 221.821 143.045C222.169 142.653 222.583 142.267 222.986 141.853C223.399 141.425 223.837 141.023 224.3 140.649C225.214 139.949 226.265 139.448 227.385 139.181C228.295 138.944 229.233 138.838 230.173 138.867C230.808 138.884 231.44 138.973 232.055 139.131L232.552 139.269C232.608 139.288 232.665 139.303 232.723 139.314Z" fill="#12123D"/>
<g opacity="0.3">
<path d="M236.659 143.592C235.583 143.79 234.49 143.871 233.397 143.835C232.127 143.873 230.885 143.967 229.615 143.95C228.655 143.95 227.534 143.989 226.784 143.487C226.799 143.716 226.872 143.938 226.997 144.131C227.121 144.324 227.293 144.482 227.496 144.591C228.185 144.83 228.908 144.953 229.638 144.955C232.158 145.086 234.684 144.94 237.172 144.519C237.024 144.191 236.852 143.874 236.659 143.57" fill="black"/>
</g>
<path d="M235.345 141.467C236.14 141.599 236.637 141.698 236.813 142.306C236.957 142.808 237.012 143.459 236.532 143.675C236.383 143.733 236.223 143.761 236.063 143.757L227.821 144.166C227.544 144.213 227.258 144.161 227.015 144.017C226.866 143.863 226.782 143.657 226.782 143.443C226.782 143.228 226.866 143.022 227.015 142.869C227.331 142.579 227.724 142.387 228.147 142.317C230.491 141.718 232.905 141.438 235.323 141.483" fill="#D4AA00"/>
<path d="M227.164 144.1C227.042 144.032 226.939 143.933 226.866 143.812C226.778 143.645 226.739 143.456 226.751 143.267C226.764 143.078 226.829 142.896 226.938 142.742C227.335 142.33 227.861 142.065 228.429 141.991C229.063 141.864 229.77 141.731 230.51 141.621C231.774 141.414 233.054 141.322 234.335 141.345C234.826 141.345 235.218 141.389 235.494 141.411L235.809 141.444H235.919L235.814 141.417L235.5 141.367C235.224 141.334 234.826 141.284 234.335 141.268C233.042 141.224 231.748 141.307 230.471 141.516C229.731 141.627 229.025 141.765 228.39 141.897C227.803 141.977 227.263 142.258 226.861 142.692C226.745 142.857 226.679 143.052 226.67 143.253C226.662 143.455 226.71 143.654 226.811 143.829C226.869 143.921 226.948 143.997 227.043 144.05L227.164 144.1Z" fill="#12123D"/>
<path d="M216.527 146.076L221.429 144.723L221.368 146.219L215.975 147.467L216.527 146.076Z" fill="white"/>
<path d="M225.094 148.565C225.094 148.538 222.815 148.78 220.005 149.117C217.195 149.454 214.927 149.735 214.927 149.763C214.927 149.791 217.212 149.548 220.016 149.211C222.82 148.874 225.1 148.593 225.094 148.565Z" fill="#12123D"/>
<path d="M210.93 178.666L215.898 190.721L218.106 181.453C218.559 179.667 219.453 178.023 220.706 176.673C221.149 176.207 221.629 175.779 222.141 175.392L226.044 193.266C226.044 193.266 222.732 203.445 214.866 203.682C212.581 203.749 209.098 202.297 208.01 199.752C207.458 198.494 200.464 181.889 200.464 181.889L210.93 178.666Z" fill="#E0E0E0"/>
<path d="M213.055 188.304L213.337 186.521L207.48 181.553L206.442 182.717L203.103 186.543L215.721 196.777L218.763 193.123L213.055 188.304Z" fill="#12123D"/>
<path d="M260.373 210.638C260.538 208.154 257.525 179.726 257.525 179.726L251.061 170.176L238.734 168.007C238.547 169.508 237.581 173.427 232.497 174.873C229.88 175.619 227.038 173.008 227.038 173.008L222.141 175.387L224.002 188.701L226.403 203.892L260.5 213.585C260.5 213.585 260.207 213.127 260.373 210.638Z" fill="#E0E0E0"/>
<path d="M227.932 205.471L226.403 187.145L244.232 183.534L260.257 207.248L260.726 215.352L236.085 214.584L227.932 205.471Z" fill="#D4AA00"/>
<path d="M223.328 181.657C223.424 181.937 223.492 182.226 223.532 182.519C223.648 183.071 223.792 183.888 223.957 184.887C224.283 186.896 224.647 189.684 225.012 192.764C225.376 195.844 225.702 198.626 225.978 200.641C226.116 201.607 226.226 202.407 226.309 203.02C226.365 203.309 226.397 203.603 226.403 203.898C226.314 203.616 226.245 203.328 226.199 203.036C226.083 202.484 225.939 201.673 225.779 200.668C225.448 198.659 225.083 195.877 224.725 192.797C224.366 189.717 224.029 186.929 223.753 184.92C223.621 183.954 223.51 183.148 223.422 182.535C223.369 182.245 223.337 181.952 223.328 181.657V181.657Z" fill="#12123D"/>
<path d="M213.072 188.271C213.072 188.271 215.462 188.574 216.301 189.01C217.14 189.446 219.586 191.064 219.586 191.064L224.509 191.997L223.334 200.133L220.022 198.477L212.757 199.2C212.757 199.2 211.173 198.836 211.173 197.704C210.796 197.475 210.474 197.165 210.23 196.797C209.987 196.428 209.828 196.01 209.765 195.573C209.003 194.6 208.295 193.584 207.646 192.532C207.469 192.041 208.457 190.876 208.457 190.876C208.457 190.876 210.533 192.637 211.769 192.913C213.006 193.189 214.17 192.692 214.281 191.881C214.529 190.252 213.072 188.271 213.072 188.271Z" fill="#FFBE9D"/>
<g opacity="0.3">
<path d="M226.132 202.308C226.132 202.308 242.692 208.237 248.212 207.883C252.91 207.585 255.223 205.383 255.598 202.308C255.973 199.233 256.487 186.156 256.487 186.156L247.627 201.541L226.044 200.862L226.132 202.308Z" fill="black"/>
</g>
<path d="M252.982 201.48C254.174 198.08 255.482 191.544 255.482 191.544L257.541 180.653C257.614 177.813 256.662 175.042 254.858 172.848C253.506 171.225 251.613 169.839 249.084 169.85C243.736 169.85 243.923 179.737 243.923 179.737L242.466 193.862L221.523 190.44L220.193 200.508L244.823 205.824C245.859 206.083 246.939 206.113 247.987 205.912C249.036 205.711 250.028 205.283 250.895 204.66C251.896 203.835 252.624 202.727 252.982 201.48V201.48Z" fill="#E0E0E0"/>
<path d="M249.675 170.717C249.675 170.761 249.25 170.783 248.599 170.96C247.744 171.179 246.951 171.592 246.281 172.166C245.611 172.741 245.082 173.461 244.735 174.272C244.464 174.896 244.381 175.315 244.337 175.31C244.317 174.931 244.387 174.552 244.542 174.206C244.853 173.337 245.383 172.563 246.081 171.959C246.78 171.356 247.622 170.943 248.527 170.761C248.901 170.655 249.294 170.64 249.675 170.717V170.717Z" fill="#12123D"/>
<path d="M257.541 180.647C257.541 180.647 257.541 180.741 257.508 180.912C257.475 181.084 257.431 181.348 257.375 181.674L256.851 184.611C256.614 185.886 256.327 187.448 255.995 189.253C255.664 191.058 255.272 193.117 254.748 195.375C254.489 196.506 254.196 197.688 253.876 198.908C253.716 199.52 253.534 200.139 253.324 200.768C253.133 201.417 252.891 202.05 252.601 202.661C252.299 203.301 251.886 203.883 251.381 204.378C250.841 204.868 250.223 205.265 249.554 205.554C248.147 206.152 246.594 206.316 245.093 206.023L225.619 201.833L220.149 200.652L220.016 200.624V200.497C220.474 197.02 220.921 193.653 221.346 190.423V190.285H221.484L242.483 193.752L242.367 193.84C242.836 189.463 243.217 185.936 243.471 183.49C243.603 182.287 243.713 181.348 243.785 180.697C243.824 180.388 243.851 180.145 243.874 179.974C243.896 179.803 243.912 179.726 243.912 179.726C243.912 179.726 243.912 179.814 243.912 179.974C243.912 180.134 243.879 180.393 243.851 180.703C243.791 181.354 243.702 182.292 243.587 183.501C243.349 185.952 242.996 189.479 242.565 193.862V193.967H242.46L221.484 190.589L221.639 190.473C221.219 193.697 220.778 197.064 220.32 200.542L220.248 200.376L225.718 201.552L245.182 205.763C246.629 206.052 248.129 205.898 249.487 205.322C250.133 205.058 250.729 204.684 251.248 204.218C251.738 203.741 252.138 203.18 252.43 202.562C252.714 201.963 252.952 201.342 253.142 200.707C253.335 200.083 253.517 199.465 253.694 198.858C254.03 197.638 254.317 196.462 254.582 195.336C255.134 193.084 255.532 191.036 255.869 189.226C256.205 187.415 256.525 185.869 256.774 184.594C257.022 183.319 257.215 182.353 257.353 181.669C257.42 181.348 257.475 181.117 257.513 180.912C257.552 180.708 257.541 180.647 257.541 180.647Z" fill="#12123D"/>
<path d="M244.9 197.439C244.364 196.879 243.896 196.259 243.504 195.59C243.15 195.038 242.847 194.547 242.632 194.216C242.508 194.042 242.338 193.908 242.14 193.829C242.14 193.829 242.206 193.779 242.339 193.802C242.514 193.848 242.671 193.949 242.786 194.089C243.128 194.519 243.446 194.967 243.741 195.43C244.209 196.049 244.598 196.724 244.9 197.439V197.439Z" fill="#12123D"/>
<path d="M241.318 184.506C241.318 184.506 237.592 175.056 241.478 170.435C241.932 169.907 242.505 169.493 243.15 169.228C243.794 168.964 244.493 168.855 245.187 168.912C246.413 169.006 248.041 169.243 249.084 169.845C249.084 169.845 245.772 169.254 244.398 170.717C243.382 171.821 240.937 175.304 243.515 183.678L241.318 184.506Z" fill="#D4AA00"/>
<path d="M226.469 187.586L222.671 175.133C222.89 174.736 223.229 174.419 223.64 174.226C224.05 174.034 224.511 173.976 224.957 174.062L228.622 187.586H226.469Z" fill="#D4AA00"/>
<path d="M214.088 191.991C214.038 192.052 211.979 190.501 209.484 188.525C207.951 187.37 206.478 186.139 205.068 184.837C205.118 184.776 207.177 186.328 209.672 188.304C211.204 189.458 212.678 190.689 214.088 191.991V191.991Z" fill="#455A64"/>
<path d="M204.185 185.306L203.053 184.263L203.594 183.595L204.908 184.478L204.185 185.306Z" fill="#455A64"/>
<path d="M193.542 169.022C193.416 168.53 193.486 168.008 193.737 167.566C193.988 167.124 194.401 166.797 194.889 166.654C196.943 166.047 200.111 165.291 200.961 166.102C202.269 167.3 205.377 170.198 205.377 170.198L209.694 179.157L202.705 181.216L200.718 174.399C200.718 174.399 197.539 174.57 197.82 172.864C197.82 172.864 196.23 172.24 196.457 171.274C196.683 170.308 197.991 170.082 197.991 170.082L197.71 168.376L193.531 169.111L193.542 169.022Z" fill="#FFBE9D"/>
<path d="M196.981 171.39H193.459V167.256H196.981C197.532 167.256 198.059 167.475 198.449 167.864C198.838 168.253 199.057 168.781 199.057 169.331V169.331C199.051 169.879 198.83 170.401 198.441 170.787C198.053 171.172 197.528 171.389 196.981 171.39V171.39Z" fill="#455A64"/>
<path d="M199.664 169.238L194.376 167.874C194.376 167.874 192.957 167.477 193.697 169.011C194.436 170.546 196.65 170.204 197.5 171.114C198.35 172.025 198.836 173.56 202.363 174.128" fill="#FFBE9D"/>
<path d="M202.363 174.128C202.127 174.128 201.892 174.102 201.662 174.051C201.03 173.935 200.416 173.739 199.835 173.466C199.434 173.27 199.063 173.019 198.731 172.721C198.361 172.37 198.025 171.986 197.726 171.573C197.174 170.618 195.872 170.667 194.723 170.143C194.43 170.01 194.164 169.822 193.94 169.591C193.731 169.357 193.568 169.085 193.459 168.79C193.404 168.643 193.369 168.489 193.354 168.332C193.348 168.242 193.361 168.151 193.393 168.066C193.426 167.981 193.477 167.904 193.542 167.841C193.677 167.758 193.83 167.707 193.987 167.692C194.145 167.676 194.304 167.697 194.453 167.753L197.18 168.487L199.012 169.006C199.24 169.06 199.462 169.136 199.675 169.232C199.441 169.221 199.209 169.182 198.985 169.116L197.125 168.68L194.365 168.007C194.258 167.967 194.145 167.95 194.031 167.958C193.918 167.966 193.808 167.997 193.708 168.051C193.57 168.156 193.608 168.443 193.708 168.691C193.804 168.95 193.946 169.189 194.127 169.398C194.332 169.596 194.569 169.759 194.828 169.878C195.378 170.095 195.94 170.279 196.512 170.43C196.799 170.51 197.073 170.633 197.323 170.794C197.55 170.967 197.75 171.174 197.914 171.407C198.2 171.813 198.522 172.194 198.874 172.544C199.19 172.833 199.54 173.082 199.918 173.284C200.706 173.638 201.524 173.92 202.363 174.128V174.128Z" fill="#EB996E"/>
<path d="M202.032 199.885C201.407 199.866 200.798 199.689 200.261 199.369C199.724 199.049 199.277 198.598 198.963 198.058C198.556 197.322 198.325 196.502 198.286 195.663C198.248 194.823 198.404 193.986 198.742 193.217C198.786 193.117 198.83 193.012 198.88 192.918L198.83 192.791C198.511 191.858 198.343 190.88 198.333 189.893C198.135 186.659 197.947 183.65 197.781 180.647C197.616 177.645 197.417 174.62 197.229 171.379H197.505C197.704 174.62 197.892 177.634 198.057 180.647C198.223 183.661 198.422 186.659 198.609 189.893C198.616 190.831 198.767 191.762 199.057 192.653C199.395 192.025 199.969 191.557 200.652 191.351C200.89 191.298 201.137 191.297 201.375 191.346C201.614 191.396 201.84 191.495 202.037 191.638C202.229 191.768 202.391 191.939 202.51 192.138C202.629 192.338 202.703 192.561 202.727 192.791C202.743 193.039 202.707 193.287 202.62 193.519C202.533 193.751 202.398 193.962 202.224 194.138C202.05 194.314 201.841 194.452 201.61 194.541C201.379 194.631 201.131 194.67 200.884 194.657C200.487 194.591 200.113 194.429 199.792 194.187C199.471 193.945 199.213 193.629 199.04 193.266L198.996 193.366C198.675 194.094 198.526 194.887 198.56 195.682C198.595 196.478 198.812 197.255 199.195 197.953C199.546 198.59 200.102 199.09 200.774 199.372C201.445 199.654 202.192 199.7 202.893 199.504C204.179 199.04 205.184 197.489 205.333 195.723C205.4 194.05 205.019 192.39 204.229 190.915C203.876 190.175 203.467 189.452 203.075 188.751C202.683 188.05 202.258 187.294 201.899 186.543C201.601 185.994 201.429 185.384 201.397 184.76C201.376 184.438 201.45 184.118 201.609 183.837C201.768 183.557 202.005 183.329 202.291 183.181C202.447 183.13 202.613 183.119 202.774 183.147C202.935 183.175 203.087 183.242 203.217 183.342C203.346 183.442 203.449 183.572 203.517 183.721C203.585 183.87 203.615 184.033 203.605 184.197H203.335C203.342 184.08 203.319 183.962 203.269 183.856C203.219 183.75 203.143 183.658 203.048 183.59C202.957 183.516 202.85 183.466 202.735 183.444C202.62 183.422 202.502 183.428 202.391 183.463C202.159 183.594 201.968 183.788 201.841 184.022C201.715 184.256 201.656 184.522 201.673 184.787C201.709 185.367 201.871 185.933 202.148 186.443C202.501 187.2 202.915 187.934 203.318 188.651C203.721 189.369 204.118 190.081 204.477 190.832C205.286 192.358 205.667 194.075 205.581 195.8C205.449 197.379 204.588 199.233 202.965 199.818C202.66 199.892 202.344 199.914 202.032 199.885V199.885ZM199.189 192.924C199.336 193.286 199.57 193.605 199.87 193.854C200.171 194.102 200.529 194.272 200.911 194.348C201.117 194.358 201.322 194.323 201.513 194.246C201.703 194.169 201.875 194.051 202.015 193.901C202.164 193.76 202.28 193.588 202.353 193.397C202.427 193.206 202.457 193.001 202.44 192.797C202.422 192.608 202.364 192.424 202.268 192.259C202.173 192.095 202.044 191.952 201.888 191.842C201.724 191.721 201.535 191.636 201.336 191.593C201.136 191.55 200.929 191.55 200.729 191.594C200.399 191.701 200.094 191.875 199.832 192.104C199.57 192.332 199.357 192.611 199.206 192.924H199.189Z" fill="#455A64"/>
<path d="M234.18 250.658L246.943 246.291C246.943 246.291 255.664 257.784 258.104 257.232L250.531 232.171L230.361 238.155L234.18 250.658Z" fill="#455A64"/>
<path d="M243.515 238.872C243.515 238.609 243.612 238.355 243.789 238.159C243.965 237.963 244.208 237.84 244.47 237.812C244.732 237.803 244.988 237.894 245.185 238.068C245.383 238.241 245.506 238.484 245.53 238.745C245.524 239.022 245.418 239.286 245.231 239.49C245.044 239.693 244.789 239.821 244.514 239.849C244.237 239.831 243.979 239.705 243.793 239.499C243.607 239.293 243.51 239.022 243.52 238.745" fill="#E0E0E0"/>
<path d="M251.05 231.994L249.095 232.546L256.531 256.592C256.531 256.592 257.359 257.563 258.104 257.199L251.05 231.994Z" fill="#E0E0E0"/>
<path d="M246.937 246.744C247.059 246.705 246.937 246.076 247.141 245.358C247.346 244.641 247.771 244.161 247.693 244.061C247.616 243.962 246.959 244.359 246.716 245.237C246.474 246.115 246.832 246.794 246.937 246.744Z" fill="#12123D"/>
<path d="M248.819 249.035C248.946 249.035 248.996 248.433 249.371 247.859C249.747 247.285 250.271 247.003 250.233 246.882C250.194 246.76 249.471 246.882 248.996 247.616C248.521 248.35 248.704 249.068 248.819 249.035Z" fill="#12123D"/>
<path d="M252.413 249.576C252.413 249.454 251.745 249.471 251.171 249.99C250.597 250.509 250.503 251.154 250.619 251.177C250.735 251.199 250.989 250.735 251.469 250.321C251.949 249.907 252.441 249.703 252.413 249.576Z" fill="#12123D"/>
<path d="M243.918 247.406C244.017 247.323 243.675 246.81 243.515 246.104C243.355 245.397 243.41 244.795 243.283 244.762C243.156 244.729 242.88 245.38 243.084 246.208C243.288 247.036 243.84 247.495 243.918 247.406Z" fill="#12123D"/>
<path d="M232.629 216.621C232.138 216.489 210.522 239.673 210.03 243.509C209.539 247.346 210.323 250.685 212.879 252.838C215.435 254.991 244.514 247.925 244.514 247.925L241.754 235.743L252.242 232.21L242.858 215.015L232.629 216.621Z" fill="#D4AA00"/>
<g opacity="0.3">
<path d="M227.512 221.76L226.822 222.506C226.822 222.506 239.209 235.505 243.012 235.323L249.084 233.264L228.528 220.634L227.512 221.76Z" fill="black"/>
</g>
<path d="M241.837 236.063C241.837 236.14 237.349 237.531 231.768 239.17C226.187 240.81 221.633 242.079 221.611 242.002C221.589 241.925 226.099 240.539 231.685 238.894C237.272 237.249 241.815 235.985 241.837 236.063Z" fill="#12123D"/>
<path d="M214.844 237.404L219.045 250.729C219.045 250.729 206.901 259.479 207.453 262.018L233.59 254.798L227.899 233.761L214.844 237.404Z" fill="#455A64"/>
<path d="M226.811 247.368C227.084 247.373 227.344 247.48 227.543 247.666C227.742 247.853 227.865 248.106 227.888 248.378C227.898 248.656 227.8 248.927 227.613 249.133C227.426 249.34 227.166 249.465 226.889 249.482C226.601 249.466 226.329 249.344 226.126 249.141C225.922 248.937 225.8 248.665 225.785 248.378C225.823 247.826 226.414 247.274 226.944 247.379" fill="#E0E0E0"/>
<path d="M233.75 255.344L233.198 253.302L208.104 260.406C208.104 260.406 207.077 261.234 207.436 262.018L233.75 255.344Z" fill="#E0E0E0"/>
<path d="M218.592 250.713C218.636 250.84 219.287 250.713 220.027 250.961C220.767 251.21 221.253 251.64 221.357 251.557C221.462 251.475 221.065 250.79 220.165 250.52C219.265 250.249 218.526 250.608 218.592 250.713Z" fill="#12123D"/>
<path d="M216.158 252.606C216.158 252.739 216.77 252.799 217.355 253.219C217.941 253.638 218.222 254.179 218.344 254.135C218.465 254.091 218.344 253.351 217.62 252.843C216.897 252.336 216.125 252.485 216.158 252.606Z" fill="#12123D"/>
<path d="M215.506 256.316C215.628 256.316 215.628 255.626 215.109 255.018C214.59 254.411 213.917 254.295 213.889 254.417C213.861 254.538 214.336 254.809 214.756 255.317C215.175 255.824 215.374 256.338 215.506 256.316Z" fill="#12123D"/>
<path d="M217.963 247.572C218.045 247.671 218.586 247.335 219.321 247.186C220.055 247.037 220.678 247.108 220.717 246.976C220.756 246.843 220.088 246.545 219.221 246.733C218.355 246.921 217.874 247.489 217.963 247.572Z" fill="#12123D"/>
<g opacity="0.3">
<path d="M233.766 250.354L232.155 244.034L233.358 243.476L226.044 223.571L224.647 224.785L230.394 243.018L232.453 250.63L233.766 250.354Z" fill="black"/>
</g>
<path d="M216.511 201.083C215.093 200.778 213.627 200.778 212.209 201.083C210.791 201.387 209.454 201.989 208.286 202.849C207.105 203.68 206.188 204.834 205.644 206.171C205.1 207.509 204.952 208.975 205.217 210.395C206.393 218.675 216.941 246.827 216.941 246.827L231.536 242.438C231.619 242.438 231.702 242.173 231.652 242.245C231.536 242.438 224.25 218.973 224.432 219.249C224.614 219.525 239.159 231.288 245.198 233.419C247.902 234.399 250.849 234.484 253.604 233.661C256.359 232.838 258.777 231.151 260.5 228.848C261.913 226.872 262.012 218.184 260.5 213.591C260.5 213.591 218.382 201.651 217.593 201.359C217.238 201.243 216.877 201.151 216.511 201.083Z" fill="#D4AA00"/>
<path d="M215.915 209.672C218.246 211.246 220.215 213.298 221.69 215.693C223.166 218.088 224.114 220.77 224.471 223.56" fill="#D4AA00"/>
<path d="M261.096 228.561L260.919 228.843C260.737 229.109 260.54 229.365 260.329 229.61C259.489 230.546 258.521 231.358 257.453 232.022C255.756 233.107 253.855 233.83 251.867 234.147C250.615 234.35 249.341 234.367 248.085 234.197C246.667 234.026 245.289 233.611 244.012 232.972C243.316 232.679 242.659 232.282 241.958 231.923C241.257 231.564 240.573 231.133 239.877 230.692C238.482 229.827 237.051 228.885 235.583 227.866C232.639 225.834 229.577 223.549 226.397 221.01L225.205 220.044L224.609 219.547L224.449 219.398L224.371 219.326C224.421 219.326 224.233 219.26 224.476 219.359C224.67 219.155 224.532 219.26 224.576 219.238V219.276L224.681 219.652C224.99 220.645 225.299 221.656 225.619 222.682C226.267 224.725 226.927 226.817 227.601 228.959C228.97 233.242 230.394 237.713 231.868 242.334L231.912 242.466L231.774 242.51L216.997 246.959L216.864 246.998L216.82 246.871C215.876 244.343 214.899 241.655 213.922 238.922C211.802 232.994 209.788 227.187 208.016 221.518C207.127 218.686 206.299 215.887 205.637 213.1C205.554 212.752 205.46 212.41 205.394 212.056C205.327 211.703 205.267 211.355 205.2 211.008C205.055 210.312 204.987 209.603 204.996 208.893C204.998 207.479 205.404 206.094 206.166 204.902C206.938 203.793 207.934 202.858 209.09 202.159C210.247 201.46 211.538 201.012 212.879 200.845C214.166 200.66 215.476 200.714 216.743 201.005L217.665 201.243L218.553 201.508L220.314 202.032L233.237 205.896L251.949 211.504L257.033 213.044L258.353 213.447C258.651 213.541 258.8 213.596 258.8 213.596C258.8 213.596 258.645 213.563 258.342 213.475L257.017 213.1L251.916 211.609L233.148 206.089L220.209 202.258L218.448 201.739L217.543 201.48L216.654 201.259C215.425 200.981 214.155 200.929 212.906 201.105C211.602 201.268 210.347 201.704 209.223 202.385C208.098 203.066 207.13 203.977 206.382 205.057C205.65 206.212 205.267 207.554 205.278 208.921C205.269 209.616 205.337 210.311 205.482 210.991C205.543 211.333 205.609 211.681 205.675 212.029C205.741 212.376 205.835 212.719 205.913 213.066C206.575 215.826 207.403 218.631 208.297 221.462C210.069 227.12 212.084 232.927 214.204 238.856C215.181 241.583 216.158 244.277 217.096 246.799L216.925 246.711L231.708 242.295L231.614 242.466C230.145 237.846 228.727 233.375 227.363 229.091C226.69 226.946 226.031 224.85 225.387 222.804C225.072 221.783 224.763 220.767 224.454 219.768L224.349 219.387V219.332C224.394 219.299 224.25 219.376 224.443 219.172C224.703 219.276 224.526 219.205 224.587 219.238L224.653 219.293L224.785 219.409L225.376 219.906L226.563 220.872C229.737 223.405 232.8 225.707 235.721 227.744C237.178 228.771 238.608 229.709 239.999 230.581C240.689 231.018 241.39 231.409 242.063 231.812C242.736 232.215 243.415 232.569 244.1 232.867C245.361 233.503 246.722 233.918 248.124 234.092C249.364 234.267 250.624 234.256 251.861 234.059C253.836 233.756 255.728 233.051 257.42 231.989C258.487 231.339 259.459 230.544 260.307 229.627C260.523 229.388 260.725 229.137 260.914 228.876C261.002 228.649 261.096 228.561 261.096 228.561Z" fill="#12123D"/>
<path d="M217.764 212.779C218.196 212.944 218.604 213.165 218.978 213.436C219.913 214.041 220.789 214.732 221.595 215.501C222.403 216.267 223.128 217.116 223.759 218.034C224.044 218.4 224.271 218.808 224.432 219.243C224.129 218.893 223.849 218.525 223.593 218.139C222.925 217.266 222.186 216.448 221.385 215.694C220.587 214.938 219.741 214.235 218.851 213.591C218.47 213.346 218.107 213.075 217.764 212.779V212.779Z" fill="#12123D"/>
<path d="M222.749 211.151C222.984 211.491 223.17 211.862 223.301 212.255C223.658 213.17 223.944 214.111 224.156 215.07C224.372 216.027 224.51 217 224.57 217.979C224.623 218.384 224.623 218.794 224.57 219.199C224.482 219.199 224.388 217.35 223.886 215.131C223.383 212.912 222.666 211.184 222.749 211.151Z" fill="#12123D"/>
<path d="M255.024 210.577L260.356 209.042L263.839 209.672L265.495 215.49C267.151 220.634 266.782 223.582 263.37 225.84C262.371 226.502 261.422 226.866 260.732 226.574C258.336 225.558 255.024 210.577 255.024 210.577Z" fill="#455A64"/>
<path d="M260.356 209.042L226.325 203.445L226.403 203.898L260.356 214.055V209.042Z" fill="#455A64"/>
<path d="M47.9577 235.522L44.6126 247.296C44.6126 247.296 55.2717 254.687 54.8632 256.918L32.1484 251.16L36.6252 232.641L47.9577 235.522Z" fill="#455A64"/>
<path d="M37.834 244.486C37.5977 244.501 37.375 244.602 37.2081 244.77C37.0412 244.937 36.9418 245.161 36.9287 245.397C36.9312 245.634 37.0239 245.862 37.1879 246.033C37.352 246.204 37.5751 246.306 37.8119 246.319C38.0627 246.303 38.2989 246.195 38.4751 246.016C38.6513 245.837 38.7552 245.599 38.7669 245.347C38.7227 244.873 38.2149 244.381 37.7457 244.497" fill="#E0E0E0"/>
<g opacity="0.6">
<path d="M32.1484 251.16L32.6728 249.311L54.256 255.521C54.256 255.521 55.1558 256.228 54.8632 256.918L32.1484 251.16Z" fill="white"/>
</g>
<path d="M45.0101 247.241C44.9769 247.351 44.4139 247.241 43.7791 247.489C43.1443 247.738 42.7358 248.108 42.642 248.041C42.5481 247.975 42.8793 247.362 43.6521 247.103C44.4249 246.844 45.0597 247.147 45.0101 247.241Z" fill="#12123D"/>
<path d="M47.1462 248.847C47.1462 248.958 46.5942 249.029 46.125 249.399C45.6558 249.769 45.3964 250.255 45.286 250.222C45.1756 250.189 45.286 249.532 45.8876 249.074C46.4893 248.615 47.1683 248.737 47.1462 248.847Z" fill="#12123D"/>
<path d="M47.7866 252.076C47.6762 252.076 47.6651 251.475 48.1012 250.934C48.5373 250.393 49.1169 250.277 49.1389 250.382C49.161 250.487 48.7581 250.735 48.4103 251.182C48.0625 251.629 47.897 252.093 47.7866 252.076Z" fill="#12123D"/>
<path d="M45.4793 244.481C45.4075 244.569 44.9273 244.288 44.298 244.172C43.6687 244.056 43.1222 244.133 43.0891 244.023C43.056 243.912 43.6411 243.625 44.3753 243.774C45.1094 243.923 45.5565 244.404 45.4793 244.481Z" fill="#12123D"/>
<path d="M39.9979 238.287L39.4459 250.498C39.4459 250.498 51.5236 255.146 51.6451 257.414L28.2568 257.232L28.3065 238.166L39.9979 238.287Z" fill="#455A64"/>
<path d="M32.2367 249.416C32.0096 249.486 31.8161 249.637 31.693 249.841C31.5699 250.044 31.5257 250.286 31.5688 250.52C31.6266 250.749 31.7696 250.947 31.9686 251.074C32.1676 251.202 32.4076 251.248 32.6397 251.204C32.8758 251.13 33.077 250.973 33.206 250.762C33.3349 250.551 33.3828 250.3 33.3407 250.056C33.2591 249.822 33.089 249.63 32.867 249.521C32.645 249.411 32.389 249.393 32.1539 249.471" fill="#E0E0E0"/>
<g opacity="0.6">
<path d="M28.2568 257.232L28.3341 255.311L50.7508 256.205C50.7508 256.205 51.7886 256.674 51.6672 257.42L28.2568 257.232Z" fill="white"/>
</g>
<path d="M39.8488 250.382C39.8488 250.498 39.2968 250.547 38.7061 250.934C38.1155 251.32 37.8395 251.789 37.7346 251.74C37.6297 251.69 37.8064 251.028 38.4964 250.597C39.1864 250.166 39.8764 250.277 39.8488 250.382Z" fill="#12123D"/>
<path d="M42.2997 251.431C42.2997 251.541 41.825 251.734 41.4331 252.226C41.0412 252.717 40.9252 253.23 40.8148 253.219C40.7044 253.208 40.6327 252.562 41.1295 251.966C41.6263 251.37 42.2942 251.32 42.2997 251.431Z" fill="#12123D"/>
<path d="M43.6687 254.422C43.5638 254.422 43.4092 253.87 43.7073 253.23C44.0054 252.59 44.5464 252.352 44.5905 252.446C44.6347 252.54 44.309 252.882 44.0716 253.407C43.8343 253.931 43.7846 254.411 43.6687 254.422Z" fill="#12123D"/>
<path d="M39.6666 247.583C39.617 247.688 39.1146 247.528 38.4467 247.583C37.7788 247.638 37.2986 247.826 37.2378 247.727C37.1771 247.627 37.6684 247.213 38.4302 247.175C39.1919 247.136 39.7439 247.495 39.6666 247.583Z" fill="#12123D"/>
<path d="M25.5134 148.902V158.562L28.0747 196.186C28.0747 196.186 26.496 214.441 25.5024 224.747C24.6523 233.695 26.0544 249.278 26.0544 249.278H40.9584L46.2907 197.307L49.6027 164.894L55.3435 150.144L25.5134 148.902Z" fill="#12123D"/>
<path d="M62.1165 148.902L63.5572 188.122C63.4578 195.48 61.432 209.219 58.7989 216.081L46.8261 242.383L46.1361 244.751L37.2323 242.571L43.8508 149.592L62.1165 148.902Z" fill="#12123D"/>
<path d="M51.8052 159.291C51.8126 159.37 51.8126 159.449 51.8052 159.528C51.8052 159.694 51.8052 159.92 51.8052 160.213C51.8052 160.836 51.8052 161.725 51.8052 162.862C51.8052 165.164 51.8052 168.493 51.7334 172.605C51.6616 176.717 51.5347 181.614 51.2421 187.045C50.9496 192.477 50.5576 198.466 49.2825 204.627C48.162 210.792 46.92 216.644 45.816 221.965C44.712 227.286 43.7294 232.083 42.9952 236.129C42.2611 240.175 41.7256 243.46 41.4 245.739C41.2288 246.877 41.1405 247.765 41.0577 248.361C41.0191 248.654 40.986 248.88 40.9639 249.046C40.9575 249.125 40.9427 249.202 40.9197 249.278C40.9123 249.199 40.9123 249.119 40.9197 249.04C40.9197 248.875 40.9528 248.649 40.9804 248.356C41.0467 247.754 41.1184 246.866 41.273 245.723C41.5435 243.438 42.0348 240.148 42.7413 236.091C43.4479 232.033 44.3973 227.259 45.5013 221.91C46.6053 216.561 47.8418 210.737 49.0176 204.571C50.2872 198.428 50.6736 192.427 50.9937 187.029C51.3139 181.63 51.4464 176.712 51.5457 172.599C51.6451 168.487 51.6837 165.164 51.7113 162.862C51.7113 161.725 51.7113 160.836 51.7113 160.213C51.7113 159.92 51.7113 159.694 51.7113 159.528C51.7372 159.447 51.7686 159.368 51.8052 159.291V159.291Z" fill="#455A64"/>
<path d="M70.5677 138.878C70.7693 139.612 70.844 140.376 70.7885 141.136C70.6781 142.289 70.6229 145.138 67.5427 146.104C64.4625 147.07 61.5535 144.762 60.6151 143.719C59.6767 142.676 59.7816 139.259 59.7816 139.259L64.8434 137.007L70.5677 138.878Z" fill="#D4AA00"/>
<path d="M35.5764 95.4189L33.0151 99.5368L22.632 103.953L25.2319 146.573L27.0976 154.301L61.6694 153.153L62.525 147.169V118.426C61.7412 111.052 58.1808 106.47 54.8743 104.654L52.716 103.174L51.888 100.464L48.8409 97.6103L39.076 95.0767L35.5764 95.4189Z" fill="#D4AA00"/>
<g opacity="0.3">
<path d="M24.0837 143.332C25.1978 145.025 26.7738 146.362 28.6249 147.186C30.476 148.01 32.5246 148.285 34.5276 147.98C37.9997 147.395 40.9308 145.104 44.2593 143.962C50.0498 141.963 56.6573 143.553 62.3649 141.329C62.4753 140.346 62.4091 139.121 62.4753 138.469C59.6215 138.32 56.58 138.16 54.0573 136.813L51.7665 135.969L24.0837 143.332Z" fill="black"/>
</g>
<path d="M22.6319 103.958C22.6319 103.958 17.7025 108.176 19.1322 119.171C20.457 129.383 22.8085 143.614 25.9439 145.264C29.0792 146.915 35.8468 146.087 40.7982 143.283C45.7496 140.479 60.1182 132.883 60.1182 132.883L54.1732 122.318L35.0243 129.748C35.0243 129.748 32.5458 112.801 31.0609 109.876" fill="#D4AA00"/>
<path d="M31.061 109.887C31.061 109.887 31.1162 109.992 31.21 110.207C31.2542 110.317 31.3204 110.45 31.3811 110.615L31.5688 111.195C31.8503 112.067 32.1871 113.403 32.5514 115.098C33.2911 118.526 34.2074 123.516 35.1237 129.731L34.9857 129.648L54.1235 122.196L54.2284 122.152L54.2891 122.252C56.1659 125.591 58.1531 129.141 60.2342 132.811L60.3059 132.938L60.1679 133.032L47.8915 139.656L41.8691 142.896C40.8811 143.448 39.893 144 38.8718 144.42C37.8538 144.856 36.8082 145.225 35.7419 145.524C33.6645 146.101 31.5097 146.351 29.3553 146.264C28.3032 146.223 27.2656 146.004 26.2862 145.618L25.9274 145.458C25.8071 145.393 25.691 145.321 25.5796 145.242C25.3775 145.078 25.1925 144.893 25.0276 144.69C24.7141 144.285 24.4422 143.848 24.2162 143.388C23.398 141.615 22.7565 139.766 22.3007 137.868C21.815 136.03 21.4341 134.225 21.0919 132.48C20.4129 128.981 19.9106 125.702 19.4911 122.704C19.0715 119.707 18.7017 116.975 18.8121 114.562C18.8686 112.494 19.2409 110.446 19.9161 108.49C20.348 107.257 20.96 106.094 21.7322 105.04C21.9332 104.768 22.1527 104.51 22.3891 104.267C22.4671 104.183 22.552 104.106 22.643 104.036L22.4056 104.284C22.2566 104.455 22.0358 104.715 21.7763 105.073C21.0339 106.138 20.4431 107.301 20.021 108.529C19.3736 110.476 19.0256 112.511 18.9887 114.562C18.8949 116.958 19.2758 119.674 19.7063 122.671C20.1369 125.669 20.6558 128.936 21.3623 132.425C21.7101 134.169 22.0965 135.969 22.5823 137.796C23.0357 139.684 23.6754 141.522 24.4922 143.283C24.7119 143.727 24.9744 144.148 25.276 144.541C25.4287 144.73 25.6008 144.902 25.7894 145.055C25.8857 145.125 25.9872 145.188 26.093 145.242L26.4352 145.397C27.3864 145.771 28.3945 145.98 29.416 146.015C31.5355 146.066 33.6497 145.783 35.6812 145.176C36.7342 144.888 37.7668 144.53 38.7724 144.105C39.7826 143.669 40.7431 143.123 41.7367 142.593L47.7645 139.347L60.0465 132.723L59.9913 132.916L54.0573 122.384L54.2174 122.439L35.0575 129.842L34.9415 129.891V129.759C34.0252 123.549 33.1641 118.548 32.4631 115.125C32.1153 113.409 31.7951 112.089 31.5357 111.212C31.4695 110.991 31.4143 110.798 31.3591 110.627L31.2045 110.218C31.0996 110.003 31.061 109.887 31.061 109.887Z" fill="#12123D"/>
<path d="M32.7114 116.147L45.148 115.33L47.8969 120.502L33.9589 123.008L32.7114 116.147Z" fill="#D4AA00"/>
<path d="M32.7115 116.146C32.7594 116.31 32.7981 116.476 32.8274 116.643C32.8937 116.991 32.9875 117.449 33.1034 118.023C33.3353 119.232 33.6554 120.921 34.0639 122.991L33.9369 122.903L46.4839 120.612L47.8749 120.364L47.7701 120.568C46.8096 118.746 45.8822 117.008 45.0101 115.396L45.137 115.462L36.2277 115.981L33.6444 116.119H32.9489H32.6949C32.7684 116.113 32.8423 116.113 32.9157 116.119L33.5781 116.058L36.1284 115.854L45.1205 115.197H45.2088L45.2474 115.274L48.0074 120.441L48.1013 120.612L47.9081 120.651L46.5225 120.899L33.959 123.107H33.8541V123.002C33.5009 120.894 33.2083 119.171 32.9985 117.94C32.9047 117.388 32.8329 116.919 32.7777 116.583C32.7474 116.439 32.7253 116.293 32.7115 116.146V116.146Z" fill="#12123D"/>
<path d="M35.0243 129.748C35.1016 129.809 33.9865 131.117 33.0592 132.983C32.1318 134.848 31.7344 136.526 31.635 136.499C31.6502 136.122 31.7209 135.75 31.8448 135.395C32.0781 134.519 32.398 133.668 32.7997 132.856C33.205 132.045 33.6914 131.277 34.2515 130.565C34.4661 130.255 34.7267 129.979 35.0243 129.748V129.748Z" fill="#12123D"/>
<path d="M47.5161 106.05C47.2705 105.91 47.0393 105.745 46.8261 105.559L45.0211 104.124H45.1756C44.4787 105.25 43.6504 106.29 42.7082 107.221L42.6199 107.309L42.5205 107.226L40.6161 105.642C38.5737 103.986 36.6638 102.529 35.2727 101.502L33.6167 100.282C33.4069 100.145 33.211 99.9877 33.0316 99.8127C33.2606 99.9183 33.4787 100.046 33.683 100.194C34.0915 100.453 34.6766 100.839 35.3887 101.336C36.8128 102.324 38.7448 103.748 40.7927 105.421C41.4607 105.973 42.1065 106.525 42.6971 107.016H42.5039C43.4381 106.104 44.2709 105.094 44.9879 104.002L45.0542 103.898L45.1425 103.98L46.9199 105.465C47.1324 105.646 47.3316 105.841 47.5161 106.05V106.05Z" fill="#12123D"/>
<path d="M52.6276 103.439C52.7011 103.662 52.7347 103.895 52.7269 104.129C52.7631 104.744 52.7428 105.362 52.6662 105.973L52.6276 106.299L52.4399 106.023C51.981 105.36 51.4872 104.723 50.9605 104.113C50.7397 103.853 50.5134 103.61 50.2926 103.379C50.1914 103.265 50.0846 103.156 49.9724 103.053C49.862 102.981 49.8786 102.981 49.7792 103.086L48.8629 104.361C48.6001 104.771 48.2969 105.154 47.9576 105.504C48.1624 105.061 48.4102 104.64 48.6973 104.245L49.5695 102.926C49.5961 102.879 49.6328 102.839 49.6769 102.809C49.721 102.778 49.7714 102.758 49.8243 102.75C49.8773 102.741 49.9315 102.745 49.9829 102.76C50.0343 102.775 50.0817 102.802 50.1215 102.838C50.265 102.959 50.3533 103.058 50.4748 103.18C50.7011 103.412 50.9329 103.66 51.1592 103.925C51.6946 104.543 52.1853 105.197 52.6276 105.885L52.3957 105.94C52.6441 104.455 52.5668 103.439 52.6276 103.439Z" fill="#12123D"/>
<path d="M30.4925 108.192C30.2085 107.91 29.9499 107.603 29.7196 107.276C29.1382 106.523 28.4524 105.858 27.6828 105.3C26.8891 104.794 25.9973 104.463 25.0663 104.328C24.6687 104.295 24.274 104.234 23.885 104.146C24.2851 104.077 24.6938 104.077 25.0939 104.146C26.0808 104.245 27.0284 104.584 27.8539 105.134C28.6509 105.705 29.3421 106.411 29.8963 107.22C30.1393 107.515 30.3399 107.842 30.4925 108.192V108.192Z" fill="#12123D"/>
<path d="M57.5129 115.843C57.0956 114.995 56.7663 114.108 56.5303 113.193C56.201 112.299 55.9624 111.375 55.8182 110.433C56.2371 111.282 56.5681 112.172 56.8063 113.088C57.1345 113.98 57.3712 114.903 57.5129 115.843Z" fill="#12123D"/>
<path d="M62.4035 140.208C62.483 140.57 62.5201 140.941 62.5139 141.312C62.5581 141.985 62.6353 142.913 62.6795 143.945C62.7289 144.83 62.7105 145.718 62.6243 146.6C62.6138 146.98 62.5333 147.354 62.3869 147.704C62.3683 147.336 62.3794 146.967 62.4201 146.6C62.4201 145.927 62.4201 144.999 62.4201 143.973C62.4201 142.946 62.3317 142.013 62.3428 141.334C62.3014 140.958 62.3219 140.578 62.4035 140.208V140.208Z" fill="#12123D"/>
<path d="M39.8378 119.784C39.722 119.906 39.6564 120.067 39.6541 120.235C39.6518 120.403 39.713 120.566 39.8254 120.691C39.9378 120.816 40.0932 120.894 40.2605 120.909C40.4279 120.925 40.595 120.876 40.7284 120.774C40.8617 120.672 40.9517 120.523 40.9802 120.357C41.0087 120.192 40.9738 120.021 40.8822 119.88C40.7907 119.739 40.6494 119.638 40.4865 119.597C40.3236 119.555 40.1511 119.577 40.0034 119.657" fill="#E0E0E0"/>
<g opacity="0.3">
<path d="M31.8834 112.42L35.3721 122.754L46.8702 120.689L35.7861 125.034L34.8532 128.616L31.8834 112.42Z" fill="black"/>
</g>
<g opacity="0.3">
<path d="M33.3297 99.9949L43.608 109.296L45.1977 104.946L46.8537 105.498L45.0708 104.019C45.0708 104.019 43.1167 107.022 42.5978 107.077L33.3297 99.9949Z" fill="black"/>
</g>
<path d="M52.9202 122.274C52.8272 122.074 52.7568 121.865 52.7104 121.65C52.5835 121.186 52.4179 120.607 52.2247 119.922C51.8162 118.465 51.2256 116.461 50.5024 114.264C49.7793 112.067 49.0507 110.113 48.5097 108.694C48.2613 108.032 48.046 107.475 47.8749 107.038C47.7838 106.836 47.7136 106.626 47.6652 106.409C47.79 106.592 47.8937 106.788 47.9743 106.994C48.1564 107.375 48.4048 107.938 48.7029 108.65C49.288 110.047 50.0443 112.006 50.7729 114.203C51.5016 116.4 52.0646 118.426 52.4289 119.9C52.6111 120.634 52.7436 121.236 52.8264 121.65C52.8819 121.853 52.9134 122.063 52.9202 122.274V122.274Z" fill="#12123D"/>
<path d="M52.7711 110.797C54.7142 112.735 59.638 117.791 59.638 117.791L60.9573 116.996L54.0187 109.589C53.8788 109.441 53.692 109.348 53.4905 109.324C53.289 109.299 53.0854 109.346 52.9147 109.456V109.456C52.8059 109.526 52.7142 109.62 52.6463 109.73C52.5784 109.84 52.536 109.964 52.5223 110.092C52.5085 110.221 52.5237 110.351 52.5668 110.473C52.6098 110.595 52.6797 110.706 52.7711 110.797V110.797Z" fill="#12123D"/>
<path d="M54.1732 122.318L55.8292 117.659C55.9977 117.153 56.317 116.71 56.7442 116.39C57.1714 116.071 57.6861 115.889 58.2194 115.87C58.302 115.862 58.3852 115.862 58.4678 115.87C59.4614 115.981 64.5398 116.312 64.5398 116.312L66.4994 118.52C66.6583 118.705 66.7457 118.941 66.7457 119.185C66.7457 119.429 66.6583 119.665 66.4994 119.85V119.85L67.0514 123.808L65.9474 124.564L66.0578 127.324C66.0578 127.324 65.0642 127.987 64.6281 127.766L64.1865 127.545L63.5241 126.883L61.6528 129.527L59.0639 131.023L54.1732 122.318Z" fill="#FFBE9D"/>
<path d="M66.5049 120.055C66.2831 119.783 66.0453 119.525 65.7929 119.282C65.5103 119.048 65.1915 118.861 64.8489 118.73C64.3996 118.624 63.9412 118.561 63.48 118.542C62.2642 118.475 61.0555 118.314 59.8644 118.062C61.082 118.027 62.3004 118.092 63.5076 118.255C63.9913 118.275 64.471 118.351 64.9373 118.481C65.3096 118.636 65.6474 118.863 65.9309 119.149C66.2128 119.383 66.4137 119.7 66.5049 120.055Z" fill="#EB996E"/>
<path d="M66.3946 123.698C66.2822 123.35 66.1457 123.011 65.9861 122.682C65.5379 121.927 64.85 121.344 64.032 121.026C63.2009 120.731 62.3249 120.584 61.4431 120.59C61.0749 120.616 60.7051 120.604 60.3391 120.557C60.6946 120.438 61.0683 120.382 61.4431 120.391C62.359 120.319 63.2797 120.445 64.1424 120.761C65.0183 121.096 65.741 121.74 66.1738 122.572C66.3731 122.911 66.4509 123.308 66.3946 123.698V123.698Z" fill="#EB996E"/>
<path d="M65.8977 127.098C65.7104 126.761 65.6187 126.379 65.6327 125.994C65.6113 125.604 65.5274 125.22 65.3843 124.857C65.2862 124.652 65.1402 124.473 64.9587 124.335C64.7772 124.198 64.5654 124.106 64.341 124.068C63.4731 123.881 62.5933 123.753 61.708 123.687C61.3268 123.676 60.9516 123.59 60.604 123.433C60.9728 123.427 61.3416 123.446 61.708 123.488C62.6142 123.493 63.5172 123.595 64.4018 123.792C64.67 123.856 64.9231 123.972 65.147 124.134C65.3525 124.296 65.5122 124.509 65.6106 124.752C65.7529 125.145 65.8221 125.56 65.8149 125.978C65.837 126.679 65.9308 127.082 65.8977 127.098Z" fill="#EB996E"/>
<path d="M68.6521 118.349L46.826 140.893L47.6651 141.743L63.3032 139.982L84.3455 119.933L84.3234 118.973L68.6521 118.349Z" fill="#455A64"/>
<g opacity="0.3">
<path d="M70.0654 132.513C69.6423 132.128 69.1434 131.835 68.6006 131.654C68.0579 131.472 67.4833 131.406 66.9134 131.459C65.7699 131.578 64.6879 132.035 63.8057 132.773C63.0616 133.319 62.5184 134.095 62.2601 134.981C61.8958 136.543 62.9335 138.177 64.3466 138.933L64.5398 138.707L69.9163 134.39C70.2092 134.205 70.4294 133.924 70.5401 133.595C70.5555 133.39 70.5203 133.184 70.4376 132.995C70.3548 132.806 70.227 132.641 70.0654 132.513V132.513Z" fill="black"/>
</g>
<path d="M67.7634 130.405C67.7634 130.405 69.8776 130.449 70.5676 130.791C71.2576 131.133 73.1565 133.159 73.1565 133.159C73.1565 133.159 73.1565 134.534 72.6045 134.589C72.6693 134.896 72.7062 135.208 72.7149 135.522C72.7701 136.294 72.8805 136.736 71.8317 137.393C71.8317 137.393 71.9421 138.662 71.5557 138.988C71.2956 139.209 71.0208 139.412 70.7332 139.595C70.7332 139.595 69.5243 141.08 68.8067 140.97C68.0891 140.859 67.0569 141.743 67.0569 141.743C67.0569 141.743 63.1929 140.131 63.5793 139.673L64.9261 138.182C64.9261 138.182 62.26 136.239 62.3152 135.632C62.3704 135.025 62.5912 134.975 62.5912 134.975C62.5912 134.975 62.4808 133.816 63.4137 133.705C63.4137 133.705 64.1313 132.276 64.8433 132.221C65.5554 132.165 70.402 133.926 70.402 133.926L68.5859 132.386C68.5859 132.386 66.7698 132.11 66.825 131.509C66.8802 130.907 67.7634 130.405 67.7634 130.405Z" fill="#FFBE9D"/>
<path d="M67.4378 137.658C67.3937 137.724 66.3338 137.106 64.9869 136.466C64.1455 136.115 63.3236 135.719 62.525 135.279C63.4298 135.449 64.3018 135.762 65.1084 136.206C65.9591 136.559 66.746 137.05 67.4378 137.658V137.658Z" fill="#EB996E"/>
<path d="M69.9604 135.969C68.8798 135.723 67.8231 135.381 66.8029 134.948C65.7473 134.606 64.7239 134.172 63.7449 133.65C64.8247 133.907 65.8809 134.254 66.9023 134.688C67.9558 135.028 68.9788 135.457 69.9604 135.969V135.969Z" fill="#EB996E"/>
<path d="M84.2627 119.894C84.1672 119.903 84.0712 119.903 83.9757 119.894H83.1421L80.0123 119.856L69.1324 119.646L69.2317 119.607L63.7614 125.304C59.3454 129.858 55.3434 133.97 52.4233 136.979L48.9623 140.49L48.0239 141.428C47.9164 141.542 47.8001 141.647 47.6761 141.743C47.7696 141.615 47.873 141.495 47.9853 141.384L48.8961 140.401L52.2909 136.824L63.5682 125.094L69.0496 119.436L69.0882 119.392H69.1489L80.0289 119.707L83.1532 119.823L83.9867 119.861C84.0798 119.859 84.1727 119.871 84.2627 119.894V119.894Z" fill="#12123D"/>
<path d="M57.5184 75.0003C56.8296 74.2192 55.8717 73.7265 54.8357 73.6203C54.2579 73.4656 53.6446 73.5124 53.0969 73.7527C52.7751 73.9707 52.5207 74.2745 52.3627 74.6296C52.2046 74.9847 52.1492 75.377 52.2026 75.762C52.3225 76.5253 52.5473 77.2683 52.8706 77.97C53.1949 78.6793 53.3042 79.468 53.1852 80.2387L55.1669 84.9583C55.5073 84.8303 55.8157 84.6296 56.0706 84.3701C56.3255 84.1107 56.5207 83.7987 56.6426 83.4561C56.7645 83.1134 56.8102 82.7483 56.7765 82.3862C56.7429 82.024 56.6306 81.6736 56.4475 81.3593C56.7614 81.1892 57.0336 80.9517 57.2448 80.6639C57.4559 80.3761 57.6008 80.0452 57.6688 79.6948C57.7369 79.3444 57.7266 78.9832 57.6385 78.6373C57.5505 78.2914 57.3869 77.9692 57.1596 77.694C58.0649 77.2083 58.1366 75.8227 57.5184 75.0003Z" fill="#12123D"/>
<path d="M39.2361 87.3209L39.0042 77.7823L32.9654 77.5063C32.5971 77.5992 32.2626 77.7942 32.0004 78.0689C31.7382 78.3436 31.559 78.6868 31.4834 79.059C31.4078 79.4311 31.439 79.8171 31.5732 80.1723C31.7075 80.5276 31.9394 80.8376 32.2422 81.0667C31.7765 81.2766 31.3868 81.625 31.1262 82.0644C30.8657 82.5038 30.7469 83.0128 30.7861 83.5221C30.8254 84.0315 31.0207 84.5163 31.3454 84.9106C31.6702 85.3049 32.1087 85.5895 32.601 85.7256C32.3241 86.069 32.1434 86.4797 32.0773 86.9158C32.0113 87.352 32.0623 87.7978 32.2251 88.2077C32.388 88.6177 32.6568 88.977 33.0041 89.2489C33.3515 89.5208 33.7648 89.6955 34.2018 89.7552C34.2018 90.8592 34.8311 92.0957 35.913 92.4048C36.9949 92.7139 38.2645 91.8915 38.7724 90.8206C39.2802 89.7497 39.2637 88.5077 39.2361 87.3209Z" fill="#12123D"/>
<path d="M32.7998 76.4522C32.7998 76.4522 33.396 84.3458 34.1688 86.7526C34.799 88.5087 35.6288 90.1867 36.6417 91.7537L55.0564 86.035C55.6802 81.7735 56.326 77.49 56.0611 74.1338L50.1878 72.0417L32.7998 76.4522Z" fill="#12123D"/>
<path d="M36.6969 86.7524C35.9161 84.6414 35.3159 82.4679 34.9029 80.2553C34.4947 78.0341 34.6465 75.7461 35.3445 73.5982C35.4549 73.2726 36.4485 71.1142 36.7797 71.1473C37.0226 71.1473 36.4265 73.1732 36.5534 73.383C37.6873 75.4316 38.1742 77.7756 37.95 80.1063C37.7767 82.3536 37.3565 84.575 36.6969 86.7303" fill="#12123D"/>
<path d="M49.4813 101.53V96.1862C49.4813 96.1862 54.924 95.5569 55.2 90.1528C55.338 87.5419 55.2 82.1433 54.9737 77.2636C54.8687 74.732 53.8141 72.3328 52.0199 70.5437C50.2257 68.7546 47.8235 67.7069 45.2916 67.6091H44.7727C39.1368 67.714 36.0787 72.5771 36.3437 78.1965V96.5008L47.472 104.516L49.4813 101.53Z" fill="#FFBE9D"/>
<path d="M49.4923 96.1861C46.9973 96.0851 44.5836 95.2709 42.5371 93.8401C42.5371 93.8401 44.0993 97.8421 49.5144 97.5661L49.4923 96.1861Z" fill="#EB996E"/>
<path d="M53.2182 81.8838C53.2124 82.0859 53.1277 82.2777 52.9822 82.418C52.8367 82.5583 52.642 82.6361 52.4399 82.6346C52.3416 82.639 52.2435 82.6237 52.1513 82.5895C52.0591 82.5552 51.9747 82.5029 51.9032 82.4354C51.8316 82.368 51.7743 82.2868 51.7347 82.1968C51.6951 82.1068 51.674 82.0098 51.6726 81.9114C51.6741 81.7084 51.7554 81.5141 51.8989 81.3705C52.0425 81.2269 52.2368 81.1456 52.4399 81.1442C52.5404 81.1381 52.6411 81.1528 52.7357 81.1873C52.8303 81.2218 52.9168 81.2754 52.9898 81.3448C53.0628 81.4142 53.1208 81.4978 53.1601 81.5906C53.1994 81.6833 53.2191 81.7831 53.2182 81.8838Z" fill="#12123D"/>
<path d="M53.7427 79.4881C53.6433 79.5819 53.0748 79.1293 52.2413 79.0961C51.4077 79.063 50.784 79.4605 50.7012 79.3556C50.6184 79.2507 50.7619 79.1293 51.0379 78.9471C51.4056 78.7109 51.8378 78.5951 52.2744 78.6159C52.7064 78.6309 53.1222 78.7837 53.4612 79.052C53.7096 79.2286 53.7924 79.4163 53.7427 79.4881Z" fill="#12123D"/>
<path d="M45.7718 82.0163C45.766 82.2174 45.6821 82.4083 45.5378 82.5485C45.3935 82.6887 45.2002 82.7671 44.999 82.767C44.9002 82.7707 44.8017 82.7547 44.7092 82.7199C44.6166 82.6851 44.5319 82.6323 44.46 82.5645C44.3881 82.4967 44.3304 82.4152 44.2902 82.3249C44.2501 82.2346 44.2283 82.1372 44.2262 82.0383C44.2333 81.8367 44.3185 81.6458 44.4637 81.5058C44.6089 81.3657 44.8028 81.2875 45.0045 81.2876C45.103 81.2839 45.2013 81.3 45.2935 81.3348C45.3857 81.3696 45.4701 81.4225 45.5415 81.4904C45.613 81.5583 45.6702 81.6398 45.7098 81.7301C45.7493 81.8204 45.7704 81.9177 45.7718 82.0163V82.0163Z" fill="#12123D"/>
<path d="M45.5896 79.488C45.4903 79.5874 44.9217 79.1292 44.0882 79.1016C43.2547 79.074 42.6364 79.4604 42.5481 79.3555C42.4598 79.2506 42.6088 79.1292 42.8848 78.947C43.2532 78.7122 43.6849 78.5965 44.1213 78.6158C44.5545 78.6335 44.9713 78.7859 45.3136 79.0519C45.5565 79.2507 45.6393 79.4328 45.5896 79.488Z" fill="#12123D"/>
<path d="M48.3221 85.9796C48.7646 85.8573 49.2209 85.7923 49.68 85.7864C49.8897 85.7864 50.094 85.7422 50.1381 85.5987C50.1619 85.3797 50.1196 85.1586 50.0167 84.9639C49.8401 84.4413 49.6561 83.8893 49.4647 83.3079C48.6864 80.9729 48.1289 79.0575 48.2227 79.0244C48.3165 78.9912 49.0286 80.8625 49.807 83.1975C49.9946 83.7495 50.1768 84.3015 50.359 84.8535C50.4822 85.1153 50.5114 85.4116 50.4417 85.6925C50.4067 85.766 50.3559 85.8308 50.293 85.8823C50.23 85.9339 50.1564 85.9708 50.0774 85.9906C49.9579 86.0168 49.8355 86.028 49.7131 86.0237C49.2494 86.0655 48.7822 86.0507 48.3221 85.9796Z" fill="#12123D"/>
<path d="M45.8546 86.4599C45.9871 86.4599 45.954 87.3596 46.6992 88.0276C47.4444 88.6955 48.4104 88.6348 48.4159 88.7617C48.4214 88.8887 48.1951 88.9273 47.7866 88.9218C47.2594 88.9144 46.7523 88.7186 46.3569 88.3698C45.9759 88.0336 45.7404 87.5626 45.7 87.056C45.6835 86.6641 45.816 86.4488 45.8546 86.4599Z" fill="#12123D"/>
<path d="M45.9705 76.6232C45.8822 76.844 45.0542 76.706 44.0772 76.7833C43.1001 76.8606 42.2997 77.0979 42.1783 76.8937C42.1231 76.7943 42.2666 76.5846 42.5923 76.3803C43.0256 76.1239 43.5138 75.9744 44.0164 75.9442C44.5175 75.9012 45.0214 75.9807 45.4848 76.1761C45.816 76.3306 46.0092 76.5183 45.9705 76.6232Z" fill="#12123D"/>
<path d="M53.5053 76.6839C53.3508 76.8661 52.7877 76.6508 52.0977 76.6121C51.4077 76.5735 50.8226 76.6894 50.6956 76.4852C50.6404 76.3913 50.7398 76.2037 51.0048 76.0381C51.3517 75.8301 51.7555 75.7374 52.1584 75.7731C52.5607 75.7968 52.946 75.9432 53.2624 76.1926C53.4998 76.3969 53.5716 76.5956 53.5053 76.6839Z" fill="#12123D"/>
<path d="M36.6362 82.1984C36.5479 82.1543 32.9654 80.9509 32.9378 84.6548C32.9102 88.3588 36.6307 87.6191 36.6417 87.5142C36.6527 87.4093 36.6362 82.1984 36.6362 82.1984Z" fill="#FFBE9D"/>
<path d="M35.5211 86.1122C35.5211 86.1122 35.4549 86.1563 35.3445 86.206C35.2685 86.2384 35.1869 86.255 35.1043 86.255C35.0218 86.255 34.9401 86.2384 34.8642 86.206C34.6252 86.0541 34.4315 85.8408 34.3033 85.5883C34.1751 85.3358 34.1172 85.0534 34.1356 84.7708C34.1292 84.4535 34.1933 84.1386 34.3233 83.849C34.359 83.7342 34.4217 83.6296 34.5063 83.5441C34.5908 83.4587 34.6946 83.3947 34.809 83.3577C34.8838 83.339 34.9627 83.347 35.0323 83.3802C35.1018 83.4135 35.1575 83.4699 35.1899 83.5399C35.2396 83.6392 35.1899 83.7165 35.2341 83.722C35.2782 83.7275 35.3169 83.6613 35.2837 83.5067C35.2657 83.4146 35.2146 83.3322 35.1402 83.2749C35.0395 83.1979 34.9131 83.1624 34.7869 83.1755C34.6365 83.2032 34.4955 83.2682 34.3768 83.3647C34.2582 83.4611 34.1657 83.5859 34.108 83.7275C33.9482 84.0478 33.8686 84.402 33.8761 84.7598C33.8569 85.0895 33.9351 85.4176 34.101 85.7033C34.2669 85.9889 34.5131 86.2194 34.809 86.3661C34.9084 86.3939 35.0127 86.3998 35.1146 86.3836C35.2165 86.3675 35.3138 86.3295 35.3997 86.2723C35.5101 86.1895 35.5321 86.1122 35.5211 86.1122Z" fill="#EB996E"/>
<path d="M52.578 71.1363C53.1797 70.8051 51.3801 68.8676 49.9063 68.1997C47.6983 67.1951 44.2814 66.5768 42.228 67.1619C39.7605 67.8685 37.7126 69.0994 36.4761 71.3516C35.2844 73.6419 34.7242 76.2084 34.8533 78.787C34.8324 79.5754 35.023 80.355 35.4053 81.0447C35.9241 81.8617 36.9177 82.3751 36.8736 83.5067C36.8551 83.9107 36.9936 84.3063 37.26 84.6107C37.9389 85.3338 38.7669 84.6548 39.1478 83.9759C39.9593 82.5241 40.0476 80.7908 40.1138 79.1293C40.2263 77.9521 40.1461 76.7644 39.8765 75.613C39.6943 74.9948 39.4017 74.4152 39.2527 73.7859C39.1612 73.4771 39.137 73.1522 39.1817 72.8332C39.2265 72.5142 39.3392 72.2085 39.5121 71.9367C39.6048 71.8273 39.7063 71.7258 39.8157 71.6331C40.33 71.1925 40.951 70.8948 41.6166 70.7699C42.2822 70.6449 42.9689 70.697 43.608 70.921C45.6945 71.6552 49.2549 72.7482 50.1823 72.025C50.8421 71.5926 51.4058 71.0289 51.8383 70.3691L52.578 71.1363Z" fill="#12123D"/>
<path d="M42.112 63.3366C41.8525 63.3642 35.5211 64.5731 33.7878 69.2044C32.0545 73.8356 32.4741 75.2764 32.4741 75.2764C32.2234 75.4259 31.9964 75.6119 31.8006 75.8284C31.5301 76.1264 31.8613 77.6113 32.6838 77.4844C38.9159 74.9728 46.1913 74.9452 54.2781 75.464L60.477 75.5965C62.2048 75.856 62.8341 75.4143 62.133 74.9562C61.581 74.6029 56.7234 72.4612 56.7234 72.4612L55.7519 71.7104L53.3121 68.0783C53.3121 68.0783 53.6433 67.5925 53.0305 67.162C52.4178 66.7314 47.2621 62.7956 42.112 63.3366Z" fill="#D4AA00"/>
<path d="M55.752 71.7104C55.6711 71.7153 55.59 71.7153 55.5091 71.7104L54.8191 71.6718C54.2174 71.6276 53.3508 71.6055 52.2744 71.5945C49.4786 71.5918 46.6879 71.8319 43.9337 72.3121C41.1789 72.8109 38.4549 73.467 35.7751 74.2772C34.7429 74.5753 33.9149 74.8292 33.3408 75.0169L32.6784 75.2156L32.441 75.2818L32.6674 75.199L33.3242 74.9782C33.8762 74.7906 34.7263 74.5145 35.753 74.2054C38.4312 73.3754 41.1577 72.7099 43.9171 72.2127C46.6788 71.7176 49.4798 71.4756 52.2854 71.4896C54.4382 71.5448 55.752 71.7104 55.752 71.7104Z" fill="#12123D"/>
<g opacity="0.3">
<path d="M36.283 65.9034C36.283 65.9034 43.0891 65.0368 46.0754 66.599L45.7277 66.4113L48.576 67.7637C48.7951 67.9122 49.0445 68.01 49.3061 68.0501C49.5677 68.0902 49.835 68.0715 50.0885 67.9955C48.8257 66.9093 47.3711 66.0687 45.7994 65.517C42.9787 64.4627 38.491 63.8997 36.283 65.9034Z" fill="black"/>
</g>
<path d="M36.1836 65.9364C36.3789 65.7943 36.5857 65.6688 36.8018 65.561C37.3856 65.2493 38.0046 65.0084 38.6455 64.8434C39.5966 64.5974 40.5784 64.4914 41.5601 64.5288C42.7692 64.5427 43.9611 64.8176 45.0542 65.3347C45.6109 65.6131 46.1492 65.9265 46.6661 66.2731C47.1629 66.6043 47.6597 66.9024 48.1068 67.2336C48.5122 67.559 48.9422 67.8524 49.393 68.1113C49.7989 68.309 50.2441 68.4127 50.6957 68.4149C52.3517 68.4977 53.3894 68.183 53.3232 68.0782C53.2917 68.134 53.2434 68.1784 53.1852 68.2051C53.0183 68.2753 52.8444 68.3271 52.6663 68.3597C52.0144 68.4755 51.3517 68.52 50.6902 68.4922C50.2275 68.4945 49.7705 68.3906 49.3543 68.1886C48.8969 67.932 48.4612 67.6384 48.0516 67.3109C47.61 66.9852 47.1077 66.6871 46.6109 66.3559C46.0962 66.0153 45.5616 65.7056 45.0101 65.4286C43.9309 64.9163 42.7545 64.6415 41.5601 64.6226C40.5851 64.5814 39.6092 64.6799 38.6621 64.9152C38.0249 65.0745 37.4067 65.3022 36.8184 65.5942C36.6086 65.699 36.4541 65.7874 36.3492 65.8481L36.1836 65.9364Z" fill="#12123D"/>
<g opacity="0.3">
<path d="M33.1199 71.1363C34.2548 71.1057 35.3826 70.9465 36.4816 70.6615C37.7732 70.4242 39.0539 70.2475 40.3456 69.9495C41.3171 69.7231 42.4652 69.5244 43.1056 68.8455C43.1445 69.0851 43.1213 69.3307 43.0382 69.5588C42.9551 69.7869 42.8148 69.9898 42.6308 70.1482C41.9864 70.5411 41.2813 70.8246 40.5443 70.9872C38.0204 71.6751 35.4291 72.086 32.8163 72.2127C32.8923 71.8376 32.9956 71.4687 33.1254 71.1087" fill="black"/>
</g>
<path d="M34.0032 68.6965C33.2248 69.0056 32.7446 69.2154 32.7004 69.8668C32.6618 70.4188 32.7501 71.0867 33.2856 71.1971C33.45 71.2246 33.6179 71.2246 33.7824 71.1971L42.2169 69.7895C42.5086 69.773 42.7856 69.656 43.0008 69.4583C43.1199 69.2712 43.1606 69.0447 43.1141 68.8278C43.0676 68.6109 42.9377 68.421 42.7524 68.2991C42.3683 68.0677 41.9254 67.9527 41.4772 67.9679C38.9637 67.8791 36.4497 68.1297 34.0032 68.7131" fill="#D4AA00"/>
<path d="M42.8682 69.5521C42.9782 69.456 43.0602 69.332 43.1056 69.1933C43.1593 69.0037 43.1588 68.8029 43.1041 68.6136C43.0495 68.4244 42.9429 68.2542 42.7965 68.1224C42.3085 67.7969 41.7252 67.6453 41.1405 67.6918C40.467 67.6918 39.7274 67.7249 38.9325 67.7746C37.6068 67.8419 36.2897 68.0267 34.9967 68.3266C34.5054 68.4425 34.108 68.5695 33.8375 68.6523L33.5229 68.7517L33.4125 68.7848C33.4125 68.7848 33.4456 68.7848 33.5174 68.7351L33.8265 68.6137C34.2043 68.4734 34.5894 68.3537 34.9802 68.2549C36.273 67.927 37.595 67.7273 38.927 67.6587C39.7053 67.609 40.4505 67.5925 41.135 67.5869C41.746 67.5399 42.3545 67.7057 42.8572 68.0561C43.0089 68.1984 43.1174 68.3805 43.1702 68.5817C43.2229 68.7829 43.2177 68.9949 43.1553 69.1933C43.1166 69.2996 43.0543 69.3959 42.9731 69.4748L42.8682 69.5521Z" fill="#12123D"/>
<path d="M54.0849 69.2155L48.8188 68.9285L49.2108 70.4299L54.9516 70.5017L54.0849 69.2155Z" fill="white"/>
<path d="M45.954 73.6258C45.954 73.6258 48.311 73.3443 51.2256 73.0738C54.1401 72.8033 56.5137 72.577 56.5137 72.6046C56.5137 72.6322 54.1567 72.8861 51.2366 73.1566C48.3165 73.4271 45.954 73.6534 45.954 73.6258Z" fill="#12123D"/>
<path d="M63.5573 148.113H23.0018V154.886H63.5573V148.113Z" fill="#455A64"/>
<path d="M24.2438 151.386H43.0118V170.419C43.0118 171.432 42.6093 172.404 41.893 173.12C41.1766 173.837 40.205 174.239 39.1919 174.239H28.0636C27.562 174.239 27.0653 174.14 26.6018 173.948C26.1384 173.756 25.7173 173.475 25.3626 173.12C25.0079 172.766 24.7265 172.344 24.5345 171.881C24.3426 171.418 24.2438 170.921 24.2438 170.419V151.386Z" fill="#455A64"/>
<path d="M43.0228 157.574C42.9685 157.184 42.9427 156.791 42.9456 156.398C42.9306 155.335 42.7917 154.277 42.5316 153.246C42.4408 152.921 42.2743 152.622 42.0458 152.374C41.7768 152.113 41.4807 151.882 41.1626 151.684C40.444 151.264 39.6406 151.009 38.8111 150.939C37.0447 150.806 35.063 150.867 32.9985 150.884C30.934 150.9 28.9413 150.718 27.2136 151.099C26.3947 151.222 25.6386 151.61 25.0608 152.203C24.6428 152.79 24.4049 153.486 24.3763 154.207C24.2493 155.548 24.2769 156.647 24.2548 157.403C24.2548 157.756 24.2548 158.043 24.2548 158.275C24.263 158.376 24.263 158.478 24.2548 158.579C24.2298 158.479 24.2186 158.377 24.2217 158.275C24.2217 158.043 24.2217 157.756 24.1941 157.403C24.1941 156.647 24.1279 155.554 24.2272 154.19C24.2485 153.425 24.4921 152.683 24.9283 152.054C25.5361 151.412 26.34 150.991 27.2136 150.856C28.1432 150.667 29.0915 150.586 30.0398 150.613C31.0113 150.613 32.0215 150.613 33.0537 150.613C35.1237 150.613 37.0833 150.541 38.8939 150.69C39.7591 150.773 40.5948 151.048 41.3392 151.496C41.6711 151.708 41.9785 151.956 42.2556 152.236C42.5174 152.507 42.7072 152.839 42.8076 153.202C43.057 154.252 43.1684 155.33 43.1388 156.409C43.1388 156.763 43.1388 157.05 43.1388 157.281C43.109 157.382 43.0702 157.48 43.0228 157.574Z" fill="#12123D"/>
<path d="M42.8849 159.578C42.8849 159.661 38.7559 159.721 33.6609 159.721C28.566 159.721 24.437 159.661 24.437 159.578C24.437 159.495 28.566 159.434 33.6609 159.434C38.7559 159.434 42.8849 159.528 42.8849 159.578Z" fill="#12123D"/>
<path d="M29.6202 174.432C29.5374 174.432 29.4767 171.092 29.4767 166.975C29.4767 162.857 29.5374 159.511 29.6202 159.511C29.703 159.511 29.7637 162.851 29.7637 166.975C29.7637 171.098 29.6975 174.432 29.6202 174.432Z" fill="#12123D"/>
<path d="M38.088 174.383C38.0107 174.383 37.9445 171.071 37.9445 166.997C37.9445 162.923 38.0107 159.605 38.088 159.605C38.1653 159.605 38.2315 162.917 38.2315 166.997C38.2315 171.076 38.1653 174.383 38.088 174.383Z" fill="#12123D"/>
<path d="M63.5572 148.113L65.8977 151.386C65.8977 151.386 67.9898 170.894 67.0569 171.81C66.124 172.726 62.9887 172.704 62.9887 172.704L62.1331 149.349L63.5572 148.113Z" fill="#455A64"/>
<path d="M56.2101 154.615C55.8424 152.44 55.8126 150.22 56.1218 148.035C56.2072 149.137 56.233 150.243 56.1991 151.347C56.2614 152.436 56.2651 153.527 56.2101 154.615V154.615Z" fill="#12123D"/>
<path d="M63.6014 148.223C63.7371 148.577 63.8207 148.949 63.8498 149.327C63.9602 150.012 64.0706 150.983 64.1313 152.026C64.1784 152.531 64.158 153.04 64.0706 153.539C63.9911 153.969 63.7671 154.358 63.4358 154.643C63.2159 154.835 62.938 154.948 62.6464 154.963C62.4366 154.963 62.3373 154.913 62.3373 154.902C62.695 154.877 63.0335 154.731 63.2978 154.488C63.573 154.222 63.7533 153.873 63.8111 153.495C63.8785 153.014 63.8897 152.527 63.8442 152.043C63.7338 149.929 63.5186 148.234 63.6014 148.223Z" fill="#12123D"/>
<path d="M249.786 151.303L252.369 148.863C255.166 149.283 258.018 148.643 260.367 147.067C262.715 145.491 264.389 143.094 265.061 140.347C265.732 137.6 265.352 134.701 263.995 132.219C262.638 129.738 260.403 127.854 257.728 126.937C255.052 126.019 252.131 126.136 249.537 127.262C246.943 128.389 244.864 130.445 243.709 133.026C242.553 135.607 242.405 138.527 243.292 141.213C244.179 143.898 246.039 146.154 248.505 147.539V147.539L249.786 151.303Z" fill="white"/>
<path d="M249.786 151.303L249.703 151.049C249.648 150.884 249.57 150.641 249.471 150.326C249.261 149.686 248.952 148.747 248.555 147.522L248.51 147.566C248.517 147.572 248.524 147.575 248.533 147.575C248.541 147.575 248.549 147.572 248.555 147.566C248.559 147.56 248.561 147.554 248.561 147.547C248.561 147.54 248.559 147.533 248.555 147.527C246.911 146.596 245.528 145.268 244.531 143.663C244.221 143.168 243.952 142.65 243.725 142.112C243.498 141.534 243.314 140.94 243.173 140.335C242.476 137.495 242.912 134.496 244.389 131.973C245.865 129.449 248.266 127.6 251.083 126.816C253.9 126.032 256.911 126.376 259.479 127.774C262.046 129.173 263.969 131.516 264.839 134.307C265.341 135.874 265.486 137.534 265.264 139.165C264.883 142.067 263.388 144.708 261.096 146.528L260.71 146.821C260.589 146.922 260.46 147.013 260.323 147.091L259.534 147.583C259.012 147.853 258.476 148.094 257.928 148.306C256.162 148.947 254.265 149.136 252.408 148.858H252.38C251.552 149.653 250.912 150.26 250.481 150.679L249.984 151.154L249.819 151.32L249.984 151.171L250.476 150.713L252.424 148.907H252.397C254.268 149.205 256.184 149.025 257.966 148.383C258.52 148.177 259.061 147.936 259.584 147.66L260.384 147.174C260.524 147.096 260.657 147.005 260.781 146.904L261.168 146.606C262.982 145.174 264.318 143.225 265 141.017C265.682 138.809 265.678 136.446 264.988 134.241C264.445 132.554 263.523 131.013 262.294 129.737C260.999 128.402 259.398 127.406 257.63 126.833C257.412 126.752 257.189 126.687 256.962 126.64L256.294 126.48L255.62 126.38C255.396 126.337 255.169 126.313 254.941 126.309L254.268 126.275C254.042 126.262 253.815 126.262 253.589 126.275C253.368 126.275 253.142 126.275 252.921 126.314L252.264 126.413C250.548 126.689 248.919 127.36 247.506 128.373C245.65 129.691 244.234 131.536 243.441 133.669C242.647 135.802 242.513 138.125 243.057 140.335C243.208 140.946 243.403 141.546 243.642 142.129C243.874 142.67 244.147 143.192 244.459 143.691C245.475 145.301 246.879 146.63 248.544 147.555V147.489C248.534 147.487 248.524 147.489 248.516 147.494C248.508 147.499 248.502 147.507 248.499 147.516L249.465 150.332L249.708 151.044C249.752 151.248 249.786 151.303 249.786 151.303Z" fill="#12123D"/>
<path d="M248.179 137.475L249.885 135.946L252.855 138.883L258.242 133.86L259.655 135.555L252.457 141.991L248.179 137.475Z" fill="#12123D"/>
</svg>
