<svg width="20" height="20" viewBox="0 0 20 20" fill="none" xmlns="http://www.w3.org/2000/svg">
<path d="M9.92187 12.1875C10.502 12.1875 11.0584 11.957 11.4687 11.5468C11.8789 11.1366 12.1094 10.5802 12.1094 10C12.1094 9.93594 12.1064 9.87246 12.101 9.80977L9.73163 12.1791C9.79433 12.1846 9.85761 12.1875 9.92187 12.1875ZM17.1625 3.23359L16.3281 2.4C16.2988 2.37072 16.2591 2.35427 16.2177 2.35427C16.1762 2.35427 16.1365 2.37072 16.1072 2.4L13.9721 4.53574C12.7942 3.93379 11.4702 3.63281 9.99999 3.63281C6.24608 3.63281 3.4453 5.58789 1.59765 9.49805C1.52338 9.65531 1.48486 9.82706 1.48486 10.001C1.48486 10.1749 1.52338 10.3466 1.59765 10.5039C2.33593 12.059 3.22493 13.3054 4.26464 14.2432L2.19843 16.3086C2.16915 16.3379 2.1527 16.3776 2.1527 16.419C2.1527 16.4605 2.16915 16.5002 2.19843 16.5295L3.03222 17.3633C3.06152 17.3926 3.10124 17.409 3.14267 17.409C3.18409 17.409 3.22382 17.3926 3.25312 17.3633L17.1625 3.45469C17.177 3.44018 17.1885 3.42294 17.1964 3.40397C17.2043 3.38501 17.2083 3.36467 17.2083 3.34414C17.2083 3.32361 17.2043 3.30327 17.1964 3.28431C17.1885 3.26534 17.177 3.2481 17.1625 3.23359ZM6.48437 10C6.48431 9.40626 6.63805 8.82263 6.93059 8.30597C7.22314 7.7893 7.64452 7.35722 8.15369 7.05181C8.66286 6.74641 9.24245 6.57809 9.836 6.56326C10.4296 6.54843 11.0168 6.68759 11.5406 6.96719L10.591 7.9168C10.208 7.79417 9.79869 7.7794 9.40788 7.87411C9.01707 7.96882 8.6599 8.16935 8.37556 8.45369C8.09121 8.73803 7.89069 9.09521 7.79598 9.48602C7.70127 9.87683 7.71604 10.2862 7.83866 10.6691L6.88905 11.6187C6.62257 11.1209 6.48353 10.5647 6.48437 10Z" fill="#707070"/>
<path d="M18.4023 9.49609C17.7148 8.04818 16.8965 6.86751 15.9474 5.9541L13.1322 8.76953C13.3695 9.38987 13.4221 10.0657 13.2836 10.7152C13.1452 11.3648 12.8216 11.9604 12.3519 12.4301C11.8823 12.8997 11.2867 13.2233 10.6371 13.3618C9.98749 13.5003 9.3117 13.4477 8.69136 13.2104L6.30347 15.5982C7.41128 16.1109 8.64344 16.3672 9.99995 16.3672C13.7539 16.3672 16.5546 14.4121 18.4023 10.502C18.4766 10.3447 18.5151 10.1729 18.5151 9.99902C18.5151 9.82511 18.4766 9.65335 18.4023 9.49609Z" fill="#707070"/>
</svg>
