<svg width="45" height="22" viewBox="0 0 45 22" fill="none" xmlns="http://www.w3.org/2000/svg">
<path fill-rule="evenodd" clip-rule="evenodd" d="M12.0356 0.542969C10.0612 0.542969 8.20095 0.766632 6.55524 1.17377C6.14207 1.27589 5.74831 1.39275 5.36398 1.51763C4.8286 1.69073 4.31664 1.88092 3.84426 2.09554C2.76178 2.58773 1.84704 3.18102 1.16672 3.91225C0.486364 4.64316 0.0357208 5.55154 0.0357208 6.53897V15.5433C0.0357208 16.5309 0.488395 17.439 1.16878 18.1702C1.84916 18.9015 2.76186 19.4965 3.84435 19.9887C6.00966 20.9724 8.87535 21.5433 12.0357 21.5433H43.036C43.5881 21.5433 44.0361 21.0956 44.0361 20.5431V11.5431C44.0361 10.991 43.5881 10.5434 43.036 10.5434H39.2294C39.1605 10.53 39.0905 10.5243 39.0205 10.5256C38.9646 10.527 38.909 10.5327 38.8544 10.5434H31.2276C31.1586 10.53 31.0886 10.5243 31.0183 10.5256C30.9627 10.527 30.9072 10.5327 30.8526 10.5434H24.036V6.54325C24.036 6.35106 24.0042 6.16423 23.9717 5.97875C23.962 5.92484 23.966 5.86792 23.954 5.81468C23.9017 5.58064 23.8234 5.35296 23.7256 5.13299C23.5284 4.69001 23.2461 4.27886 22.9053 3.91259C22.3954 3.36449 21.7522 2.89507 21.0069 2.48656L21.0049 2.48455C20.7568 2.34895 20.4973 2.22071 20.2274 2.09783L20.2254 2.09582C19.9556 1.97328 19.6746 1.85777 19.3837 1.74828L19.3817 1.74627C19.0907 1.63712 18.7897 1.53533 18.4794 1.43957H18.4777C18.1673 1.34415 17.8469 1.25509 17.5184 1.17406H17.5168C15.8715 0.767248 14.0109 0.54325 12.0361 0.54325L12.0356 0.542969ZM12.0397 4.04483C13.2457 4.04483 14.3332 4.21659 15.2134 4.54673C15.6537 4.71179 16.0494 4.91135 16.3873 5.21101C16.7251 5.51034 17.0375 5.97173 17.0375 6.5389C17.0375 7.10642 16.7251 7.5775 16.3873 7.87681C16.0494 8.17614 15.6537 8.37569 15.2134 8.54076C14.3331 8.87123 13.2457 9.043 12.0397 9.043C10.8337 9.043 9.7384 8.87123 8.8582 8.54076C8.41791 8.37569 8.02181 8.17614 7.68434 7.87681C7.34651 7.57748 7.03379 7.10639 7.03379 6.5389C7.03379 5.97171 7.34651 5.51033 7.68434 5.21101C8.02184 4.91135 8.41793 4.71179 8.8582 4.54673C9.73848 4.21659 10.8337 4.04483 12.0397 4.04483ZM12.0397 6.04471C11.0365 6.04471 10.1265 6.20911 9.55925 6.42172C9.44073 6.46625 9.41495 6.49471 9.33057 6.53891C9.41561 6.58377 9.43938 6.62094 9.55925 6.66581C10.1264 6.87876 11.0365 7.04081 12.0397 7.04081C13.0429 7.04081 13.9451 6.87876 14.5123 6.66581C14.6322 6.62094 14.6556 6.58378 14.7407 6.53891C14.6563 6.49471 14.6305 6.46625 14.5123 6.42172C13.9452 6.2091 13.0428 6.04471 12.0397 6.04471ZM7.02005 11.5291C7.29059 11.5244 7.55108 11.6295 7.74293 11.82C7.93445 12.0105 8.04093 12.2707 8.03758 12.5409V14.5408C8.0436 14.81 7.94115 15.0701 7.75298 15.2627C7.56481 15.4548 7.307 15.5633 7.0378 15.5633C6.7686 15.5633 6.51079 15.4548 6.32261 15.2627C6.13444 15.0701 6.03166 14.81 6.03768 14.5408V12.5409C6.03132 11.9908 6.47027 11.5388 7.02005 11.529V11.5291ZM11.0202 11.5291C11.2907 11.524 11.5519 11.6285 11.7441 11.8193C11.9362 12.0099 12.043 12.2703 12.0397 12.5409V15.5469C12.0457 15.8157 11.9429 16.0759 11.7548 16.2684C11.5666 16.4606 11.3088 16.5691 11.0396 16.5691C10.7707 16.5691 10.5129 16.4606 10.3247 16.2684C10.1366 16.0759 10.0338 15.8158 10.0398 15.5469V12.5409C10.0331 11.9918 10.4711 11.5401 11.0202 11.529L11.0202 11.5291ZM15.022 11.5291C15.2912 11.5267 15.5497 11.6325 15.7399 11.8227C15.9297 12.0132 16.0352 12.272 16.0318 12.5409V14.5408C16.0198 15.0845 15.5758 15.5191 15.032 15.5191C14.4883 15.5191 14.044 15.0845 14.0319 14.5408V12.5409C14.0289 12.2754 14.1314 12.0196 14.3172 11.8297C14.503 11.6399 14.7565 11.5317 15.022 11.5291ZM19.0221 11.5291C19.2913 11.526 19.5505 11.6315 19.741 11.822C19.9315 12.0125 20.037 12.2717 20.0339 12.5409V15.5469C20.0219 16.0903 19.5776 16.5249 19.0338 16.5249C18.4901 16.5249 18.0461 16.0903 18.0337 15.5469V12.5409C18.0274 11.9888 18.47 11.5357 19.0221 11.529L19.0221 11.5291ZM23.0242 11.5291C23.2931 11.5267 23.5515 11.6325 23.7417 11.8227C23.9316 12.0132 24.037 12.272 24.0337 12.5409V14.5408C24.0397 14.81 23.9373 15.0701 23.7491 15.2627C23.5609 15.4548 23.3031 15.5633 23.0339 15.5633C22.7647 15.5633 22.5069 15.4548 22.3187 15.2627C22.1306 15.0701 22.0278 14.81 22.0338 14.5408V12.5409C22.0308 12.2754 22.1332 12.0196 22.3191 11.8297C22.5049 11.6399 22.7587 11.5317 23.0242 11.5291H23.0242ZM27.0163 11.5291C27.2868 11.524 27.548 11.6285 27.7401 11.8193C27.9323 12.0099 28.0391 12.2703 28.0358 12.5409V15.5469C28.0418 15.8157 27.939 16.0759 27.7509 16.2684C27.5627 16.4606 27.3049 16.5691 27.0357 16.5691C26.7668 16.5691 26.509 16.4606 26.3208 16.2684C26.1327 16.0759 26.0299 15.8158 26.0359 15.5469V12.5409C26.0292 11.9918 26.4671 11.5401 27.0163 11.529L27.0163 11.5291ZM31.0181 11.5291C31.289 11.524 31.5501 11.6285 31.7423 11.8193C31.9345 12.0099 32.041 12.2703 32.0376 12.5409V14.5408C32.0376 15.0939 31.5896 15.5419 31.0368 15.5419C30.484 15.5419 30.0357 15.0939 30.0357 14.5408V12.5409C30.0293 11.9908 30.4683 11.5388 31.018 11.529L31.0181 11.5291ZM35.0182 11.5291C35.2887 11.524 35.5502 11.6285 35.7421 11.8193C35.9343 12.0099 36.0411 12.2703 36.0377 12.5409V15.5469C36.0257 16.0903 35.5817 16.5249 35.0376 16.5249C34.4939 16.5249 34.0499 16.0903 34.0378 15.5469V12.5409C34.0311 11.9918 34.4691 11.5401 35.0182 11.529L35.0182 11.5291ZM39.0203 11.5291C39.2908 11.524 39.552 11.6285 39.7442 11.8193C39.9364 12.0099 40.0428 12.2703 40.0398 12.5409V14.5408C40.0398 15.0939 39.5915 15.5419 39.0387 15.5419C38.4859 15.5419 38.0375 15.0939 38.0375 14.5408V12.5409C38.0312 11.9908 38.4701 11.5388 39.0202 11.529L39.0203 11.5291Z" fill="#12123D"/>
</svg>
