<svg width="21" height="24" viewBox="0 0 21 24" fill="none" xmlns="http://www.w3.org/2000/svg">
<path d="M15.7158 11.023C14.9626 11.023 14.2496 10.7345 13.7127 10.1978L12.4067 8.89184C12.2785 8.98001 12.1263 9.02812 11.958 9.02812H9.7707C9.33002 9.02812 8.96946 8.66756 8.96946 8.22688C8.96946 7.77815 9.33002 7.42564 9.7707 7.42564H10.9484L10.7 7.17722C9.4901 5.95924 9.08142 4.24463 9.48204 2.69027L2.76764 2.69009C1.52572 2.69009 0.516113 3.70758 0.516113 4.9495V20.9505C0.516292 22.2005 1.52572 23.2101 2.76764 23.2101H15.8677C17.1096 23.2101 18.1192 22.2005 18.1192 20.9505V9.79723L17.7186 10.1979C17.1817 10.7346 16.4686 11.023 15.7155 11.023L15.7158 11.023ZM7.56692 17.4649L6.0045 19.0273C5.84425 19.1876 5.63589 19.2677 5.43557 19.2677C5.22721 19.2677 5.0269 19.1876 4.86665 19.0273L3.97722 18.1379C3.66478 17.8255 3.66478 17.3206 3.97722 17.0081C4.28967 16.6957 4.79458 16.6957 5.10702 17.0081L5.43556 17.3286L6.43711 16.3271C6.74956 16.0146 7.25447 16.0146 7.56691 16.3351C7.87935 16.6477 7.87935 17.1525 7.56691 17.4649L7.56692 17.4649ZM7.56692 12.7376L6.0045 14.3C5.84425 14.4603 5.63589 14.5323 5.43557 14.5323C5.22721 14.5323 5.0269 14.4603 4.86665 14.3L3.97722 13.4106C3.66478 13.0982 3.66478 12.5934 3.97722 12.2808C4.28967 11.9603 4.79458 11.9684 5.10702 12.2728L5.43556 12.6013L6.43711 11.5998C6.74956 11.2873 7.25447 11.2873 7.56691 11.5998C7.87935 11.9124 7.87935 12.4251 7.56691 12.7376L7.56692 12.7376ZM7.56692 8.01029L6.0045 9.57271C5.84425 9.73295 5.63589 9.80503 5.43557 9.80503C5.22721 9.80503 5.0269 9.73295 4.86665 9.57271L3.97722 8.68328C3.66478 8.37084 3.66478 7.85791 3.97722 7.54543C4.28967 7.23298 4.79458 7.23298 5.10702 7.54543L5.43556 7.87398L6.43711 6.87243C6.74956 6.55998 7.25447 6.55998 7.56691 6.87243C7.87935 7.18505 7.87935 7.6978 7.56691 8.01028L7.56692 8.01029ZM14.1371 18.4827H9.77839C9.32965 18.4827 8.97715 18.1222 8.97715 17.6815C8.97715 17.2408 9.32965 16.8802 9.77839 16.8802H14.1371C14.5778 16.8802 14.9383 17.2408 14.9383 17.6815C14.9383 18.1222 14.5776 18.4827 14.1371 18.4827ZM14.1371 13.7554H9.77033C9.32964 13.7554 8.96909 13.3949 8.96909 12.9542C8.96909 12.5135 9.32964 12.1529 9.77033 12.1529H14.1371C14.5778 12.1529 14.9383 12.5135 14.9383 12.9542C14.9383 13.3949 14.5776 13.7554 14.1371 13.7554Z" fill="#707070"/>
<path d="M19.5827 1.6634C18.535 0.627327 16.9138 0.508927 15.7205 1.29479C14.5506 0.507333 12.852 0.657555 11.8325 1.67931C10.6337 2.88081 10.6337 4.83652 11.8341 6.04072L14.8513 9.06538C15.0822 9.29698 15.3896 9.4245 15.7158 9.4245C16.0421 9.4245 16.3497 9.29698 16.5804 9.06538L19.5992 6.03875C20.183 5.45302 20.5029 4.67449 20.4999 3.8466C20.4967 3.01926 20.1712 2.24394 19.5828 1.66338L19.5827 1.6634Z" fill="#707070"/>
</svg>
